<svg width="121" height="43" viewBox="0 0 121 43" fill="none" xmlns="http://www.w3.org/2000/svg">
<path d="M18.032 42.864C15.0453 42.864 12.3013 41.6133 9.8 39.112C9.576 38.888 9.464 38.6827 9.464 38.496C9.464 38.2347 9.65067 38.104 10.024 38.104C10.4347 38.104 10.808 38.2907 11.144 38.664C11.5173 39.0373 11.928 39.392 12.376 39.728C12.8613 40.1013 13.384 40.4373 13.944 40.736C15.5867 41.4827 17.0613 41.7813 18.368 41.632C21.7653 41.2587 25.0133 39.224 28.112 35.528C29.7173 33.5867 31.9947 30.0587 34.944 24.944C27.1787 30.4693 19.1707 33.5493 10.92 34.184C10.7707 34.184 10.6027 34.184 10.416 34.184C10.2667 34.2213 10.1173 34.24 9.968 34.24C7.76533 34.24 5.78667 33.68 4.032 32.56C1.75467 31.1787 0.616 29.368 0.616 27.128C0.616 22.4613 3.32267 17.944 8.736 13.576C12.8053 10.3653 17.4533 7.752 22.68 5.736C27.4587 3.944 31.6587 3.048 35.28 3.048C41.552 3.048 45.024 5.10133 45.696 9.208C45.7333 9.32 45.752 9.46933 45.752 9.656C45.752 9.992 45.64 10.16 45.416 10.16C45.08 10.16 44.8187 9.768 44.632 8.984C44.408 7.976 43.512 7.17333 41.944 6.576C40.2267 5.904 37.9493 5.568 35.112 5.568C27.4213 5.568 19.0587 8.928 10.024 15.648C7.97067 17.1787 6.19733 18.9707 4.704 21.024C2.87467 23.4133 1.96 25.5413 1.96 27.408C1.96 30.6187 4.29333 32.224 8.96 32.224C9.22133 32.224 9.48267 32.224 9.744 32.224C10.0427 32.224 10.3413 32.2053 10.64 32.168C22.3627 31.3093 31.4907 27.3333 38.024 20.24C38.472 19.7547 39.1627 19.512 40.096 19.512C40.9547 19.512 41.384 19.7173 41.384 20.128C41.384 20.128 41.3467 20.24 41.272 20.464C39.592 23.4133 38.0427 25.9707 36.624 28.136C35.2427 30.3013 33.992 32.0747 32.872 33.456C28.2053 39.2053 23.6133 42.3227 19.096 42.808C18.9093 42.8453 18.7227 42.864 18.536 42.864C18.3867 42.864 18.2187 42.864 18.032 42.864ZM45.3381 32.112C44.8528 32.224 44.2368 32.0187 43.4901 31.496C42.6315 30.8613 42.1461 30.04 42.0341 29.032C42.7808 26.8293 44.7035 23.544 47.8021 19.176C50.9008 14.808 55.1568 9.33867 60.5701 2.768C60.7195 2.50666 61.5595 2.096 63.0901 1.536C64.5088 0.938666 65.4795 0.64 66.0021 0.64C66.5248 0.64 66.7861 0.826666 66.7861 1.2C66.7861 1.536 66.4875 1.704 65.8901 1.704C65.2555 1.704 64.0795 2.56267 62.3621 4.28C60.2715 6.296 56.9861 10.2533 52.5061 16.152C47.3541 22.9093 44.7781 27.128 44.7781 28.808C44.7781 29.1813 44.8715 29.5733 45.0581 29.984C45.2448 30.3947 45.5435 30.6 45.9541 30.6C46.1781 30.6 46.6075 30.4693 47.2421 30.208C47.9141 29.9467 48.6421 29.6293 49.4261 29.256C50.2101 28.8827 50.9568 28.5093 51.6661 28.136C52.3755 27.7253 52.8981 27.408 53.2341 27.184C53.2341 27.9307 53.1408 28.36 52.9541 28.472C52.6555 28.6213 52.3568 28.7707 52.0581 28.92C51.7968 29.0693 51.5168 29.2373 51.2181 29.424C50.9568 29.5733 50.6768 29.7413 50.3781 29.928C50.0795 30.0773 49.7808 30.2453 49.4821 30.432C47.9515 31.2907 46.5701 31.8507 45.3381 32.112ZM54.4184 32.056C53.0744 32.056 52.4024 31.3467 52.4024 29.928C52.4024 27.7253 53.4664 25.392 55.5944 22.928C56.0051 22.4053 56.4904 21.7893 57.0504 21.08C57.6478 20.3333 58.3198 19.5307 59.0664 18.672C59.1411 18.672 58.8051 18.5413 58.0584 18.28C57.5731 18.1307 57.3304 17.8693 57.3304 17.496C57.3304 17.048 57.6478 16.824 58.2824 16.824C58.8798 16.824 59.8691 16.656 61.2504 16.32C61.4744 16.1707 61.6984 16.0213 61.9224 15.872C62.1838 15.7227 62.4451 15.5733 62.7064 15.424C63.1171 15.1627 63.5278 15.032 63.9384 15.032C64.1624 15.032 64.3864 15.088 64.6104 15.2C64.8718 15.2747 65.1518 15.3867 65.4504 15.536C65.8611 15.76 66.2158 15.9653 66.5144 16.152C66.8504 16.3013 67.1118 16.4133 67.2984 16.488L73.2344 16.432C73.8691 16.432 74.1864 16.5813 74.1864 16.88C74.1864 17.1787 73.8691 17.3653 73.2344 17.44C72.4504 17.552 71.7411 17.608 71.1064 17.608C71.1438 17.7573 71.1624 17.9067 71.1624 18.056C71.1998 18.168 71.2184 18.2613 71.2184 18.336C71.2184 19.5307 70.5091 21.0613 69.0904 22.928C67.9331 24.4587 66.6264 25.784 65.1704 26.904C61.8851 29.4053 58.9358 31.0107 56.3224 31.72C55.6131 31.944 54.9784 32.056 54.4184 32.056ZM54.9784 30.712C55.0531 30.712 55.1278 30.712 55.2024 30.712C55.3144 30.6747 55.4451 30.6373 55.5944 30.6C58.0584 29.8907 60.8398 28.36 63.9384 26.008C64.4984 25.5973 65.0398 25.112 65.5624 24.552C66.1224 23.992 66.6638 23.3947 67.1864 22.76C68.4184 21.192 69.0344 19.9227 69.0344 18.952C69.0344 18.504 68.9038 18.1493 68.6424 17.888H66.1224C65.3011 17.888 64.5918 17.9627 63.9944 18.112C63.4344 18.224 62.9491 18.3733 62.5384 18.56C61.4558 19.3813 59.8504 21.024 57.7224 23.488C56.9758 24.384 56.2478 25.4107 55.5384 26.568C54.6051 28.0987 54.1384 29.1253 54.1384 29.648V29.76C54.1384 30.3947 54.4184 30.712 54.9784 30.712ZM70.4988 31.776C70.2748 31.776 70.1627 31.6827 70.1627 31.496L70.2748 31.104C70.3494 30.9547 70.4428 30.7867 70.5548 30.6C70.7041 30.4133 70.8534 30.2267 71.0028 30.04L71.8988 28.696C72.0108 28.5467 72.1601 28.36 72.3468 28.136C72.5334 27.8747 72.7388 27.5573 72.9628 27.184L74.6988 24.384C75.3334 23.5253 76.0054 22.2933 76.7148 20.688C76.7521 20.464 76.7894 20.2027 76.8268 19.904C76.8641 19.568 76.9014 19.1947 76.9388 18.784C77.0134 18.5973 77.6854 18.224 78.9548 17.664C80.1494 17.0667 80.9894 16.768 81.4748 16.768C81.6614 16.768 81.7548 16.824 81.7548 16.936C81.7548 17.0107 81.6988 17.1413 81.5868 17.328C80.9521 18.1867 80.2801 19.1573 79.5708 20.24C78.8988 21.2853 78.1894 22.424 77.4428 23.656L81.1388 20.576C81.5868 20.2027 81.9414 19.9227 82.2028 19.736C82.5014 19.512 82.6881 19.3627 82.7628 19.288C85.5254 17.384 87.9521 16.432 90.0428 16.432C90.3041 16.432 90.4348 16.6933 90.4348 17.216C90.4348 17.7387 90.3041 18.3173 90.0428 18.952C89.8188 19.5493 89.5574 19.848 89.2588 19.848C89.1841 19.848 89.1094 19.8107 89.0348 19.736V19.624C89.0348 19.5493 89.0348 19.4747 89.0348 19.4C89.0721 19.3253 89.0908 19.2133 89.0908 19.064V18.896C89.0908 18.6347 89.0161 18.504 88.8668 18.504C85.6934 18.504 81.8854 20.5573 77.4428 24.664C77.0321 25.0747 76.5468 25.6533 75.9868 26.4C75.4268 27.1467 74.7921 28.0427 74.0828 29.088L73.5228 30.32L72.0108 31.16C71.2641 31.5707 70.7601 31.776 70.4988 31.776ZM85.8581 32.056C85.4847 32.056 85.2981 31.944 85.2981 31.72C85.2981 31.608 85.3541 31.4773 85.4661 31.328C85.7647 30.8427 86.1007 30.32 86.4741 29.76C86.8847 29.2 87.2954 28.6213 87.7061 28.024C88.1167 27.3893 88.5647 26.736 89.0501 26.064C89.5727 25.3547 90.0954 24.608 90.6181 23.824C91.2901 22.8907 91.7194 22.088 91.9061 21.416C91.9434 21.2667 91.9621 21.1173 91.9621 20.968C91.9621 20.7813 91.9807 20.6133 92.0181 20.464L92.1861 19.512C92.2607 19.176 92.9887 18.7093 94.3701 18.112C95.3781 17.6267 96.1621 17.384 96.7221 17.384C97.0207 17.384 97.1327 17.496 97.0581 17.72C96.7967 18.616 96.1994 19.6987 95.2661 20.968L92.5221 24.72C92.1861 25.2053 91.7381 25.784 91.1781 26.456C90.6554 27.0907 90.0394 27.8747 89.3301 28.808C89.4047 28.7707 89.5541 28.7147 89.7781 28.64C90.0394 28.528 90.3754 28.3973 90.7861 28.248C91.1967 28.0987 91.7007 27.9307 92.2981 27.744C92.8954 27.52 93.6047 27.2773 94.4261 27.016C94.9487 26.8293 95.6021 26.624 96.3861 26.4C97.1701 26.1387 98.1034 25.8773 99.1861 25.616C99.4101 25.616 99.5221 25.728 99.5221 25.952V26.064C99.5221 26.2133 99.4101 26.3253 99.1861 26.4C93.9967 27.7813 90.0021 29.5173 87.2021 31.608C86.7914 31.9067 86.3434 32.056 85.8581 32.056ZM97.6181 10.272C97.4314 10.272 97.2447 10.1227 97.0581 9.824C96.8714 9.488 96.7781 9.22667 96.7781 9.04C96.7781 8.74133 96.9461 8.46133 97.2821 8.2C97.6181 7.90133 97.9914 7.65867 98.4021 7.472C98.8501 7.28533 99.1861 7.192 99.4101 7.192C99.6341 7.192 99.7461 7.248 99.7461 7.36C99.7461 7.54666 99.6901 7.752 99.5781 7.976C99.5034 8.16267 99.3727 8.40533 99.1861 8.704C98.9994 8.928 98.8314 9.24533 98.6821 9.656C98.5701 10.0667 98.2154 10.272 97.6181 10.272ZM99.5317 31.944C98.673 31.944 98.2437 31.44 98.2437 30.432C98.2437 29.7227 98.505 28.808 99.0277 27.688C100.372 25.1867 102.593 22.6107 105.692 19.96C109.462 16.824 112.524 15.256 114.876 15.256C116.332 15.256 117.34 15.536 117.9 16.096C118.758 15.4613 119.673 15.144 120.644 15.144C120.83 15.144 120.924 15.2 120.924 15.312C120.924 15.3867 120.886 15.4613 120.812 15.536C120.289 16.1333 119.692 16.936 119.02 17.944C118.385 18.952 117.694 20.2027 116.948 21.696C115.193 25.1307 114.316 27.6507 114.316 29.256C114.316 29.6293 114.334 29.8533 114.372 29.928V29.984C114.372 30.208 114.26 30.488 114.036 30.824C113.812 31.1227 113.588 31.272 113.364 31.272C112.916 31.272 112.692 30.5253 112.692 29.032C112.692 26.4933 113.27 24.0667 114.428 21.752L109.668 25.728C107.876 27.2213 106.252 28.4533 104.796 29.424C103.377 30.3573 102.145 31.0667 101.1 31.552C100.577 31.8133 100.054 31.944 99.5317 31.944ZM102.052 29.368C102.276 29.368 102.518 29.2933 102.78 29.144C103.265 28.9573 104.105 28.472 105.3 27.688C106.494 26.904 107.782 25.9333 109.164 24.776C110.881 23.3573 112.3 22.0693 113.42 20.912C114.577 19.7173 115.417 18.8213 115.94 18.224C115.716 17.5893 115.268 17.272 114.596 17.272C113.289 17.272 111.198 18.392 108.324 20.632C105.076 23.2453 102.948 25.392 101.94 27.072C101.604 27.6693 101.436 28.2293 101.436 28.752C101.436 29.1627 101.641 29.368 102.052 29.368Z" fill="white"/>
</svg>
