<svg width="12" height="12" viewBox="0 0 12 12" fill="none" xmlns="http://www.w3.org/2000/svg">
<path d="M3.78947 0C2.78444 0 1.82058 0.399247 1.10991 1.10991C0.399247 1.82058 0 2.78444 0 3.78947V8.21053C0 9.21556 0.399247 10.1794 1.10991 10.8901C1.82058 11.6008 2.78444 12 3.78947 12H8.21053C9.21556 12 10.1794 11.6008 10.8901 10.8901C11.6008 10.1794 12 9.21556 12 8.21053V5.05263C12 4.88513 11.9335 4.72448 11.815 4.60604C11.6966 4.48759 11.5359 4.42105 11.3684 4.42105H10.7368C10.5693 4.42105 10.4087 4.35451 10.2902 4.23607C10.1718 4.11762 10.1053 3.95698 10.1053 3.78947C10.1053 2.78444 9.70602 1.82058 8.99535 1.10991C8.28469 0.399247 7.32082 0 6.31579 0H3.78947ZM3.78947 3.15789H6.31579C6.66316 3.15789 6.94737 3.44211 6.94737 3.78947C6.94737 4.13684 6.66316 4.42105 6.31579 4.42105H3.78947C3.44211 4.42105 3.15789 4.13684 3.15789 3.78947C3.15789 3.44211 3.44211 3.15789 3.78947 3.15789ZM3.78947 7.57895H8.21053C8.55789 7.57895 8.8421 7.86316 8.8421 8.21053C8.8421 8.55789 8.55789 8.8421 8.21053 8.8421H3.78947C3.44211 8.8421 3.15789 8.55789 3.15789 8.21053C3.15789 7.86316 3.44211 7.57895 3.78947 7.57895Z" fill="#C1C1C1"/>
</svg>
