<svg width="206" height="33" viewBox="0 0 206 33" fill="none" xmlns="http://www.w3.org/2000/svg">
<path d="M14.5323 32.78C11.6984 32.78 9.21535 32.091 7.08335 30.713C4.95135 29.335 3.30035 27.411 2.13035 24.941C0.98635 22.471 0.41435 19.624 0.41435 16.4C0.41435 13.176 0.99935 10.329 2.16935 7.859C3.36535 5.363 5.04235 3.439 7.20035 2.087C9.38435 0.708998 11.8934 0.019998 14.7274 0.019998C15.8454 0.019998 16.9764 0.214998 18.1204 0.604997C19.2904 0.994999 20.3434 1.541 21.2794 2.243L23.8924 0.019998H24.7114V9.692H23.8924L21.4744 3.647C20.5644 2.815 19.4984 2.152 18.2764 1.658C17.0804 1.164 15.8974 0.916998 14.7274 0.916998C12.9074 0.916998 11.2954 1.385 9.89135 2.321C8.51335 3.257 7.43435 4.622 6.65435 6.416C5.87435 8.21 5.48435 10.342 5.48435 12.812V19.949C5.48435 22.419 5.86135 24.551 6.61535 26.345C7.36935 28.139 8.42235 29.517 9.77435 30.479C11.1264 31.415 12.7124 31.883 14.5323 31.883C15.8583 31.883 17.1843 31.597 18.5103 31.025C19.8363 30.427 20.9414 29.634 21.8254 28.646L24.0874 22.367H24.9064V32.39H24.0874L21.2794 30.401C20.3434 31.155 19.2774 31.74 18.0814 32.156C16.8854 32.572 15.7024 32.78 14.5323 32.78ZM34.8559 32.39C33.1919 32.39 31.8269 31.961 30.7609 31.103C29.6949 30.219 29.1619 28.919 29.1619 27.203C29.1619 24.759 30.1889 23.03 32.2429 22.016C34.2969 20.976 36.6759 20.456 39.3799 20.456H41.9929V17.453C41.9929 16.101 41.8369 15.061 41.5249 14.333C41.2389 13.579 40.7839 13.059 40.1599 12.773C39.5359 12.461 38.6909 12.305 37.6249 12.305C36.4029 12.305 35.4929 12.552 34.8949 13.046C34.2969 13.514 33.9979 14.151 33.9979 14.957C33.9979 15.711 34.3619 16.205 35.0899 16.439C35.0899 17.089 34.8429 17.661 34.3489 18.155C33.8549 18.649 33.2699 18.896 32.5939 18.896C31.8659 18.896 31.2809 18.701 30.8389 18.311C30.3969 17.895 30.1759 17.271 30.1759 16.439C30.1759 14.931 30.9299 13.722 32.4379 12.812C33.9459 11.902 35.8309 11.447 38.0929 11.447C43.2929 11.447 45.8929 13.709 45.8929 18.233V29.387C45.8929 29.959 46.0099 30.401 46.2439 30.713C46.5039 30.999 46.8679 31.142 47.3359 31.142C47.7779 31.142 48.1289 30.999 48.3889 30.713C48.6489 30.401 48.7789 29.985 48.7789 29.465H49.5979C49.5979 30.375 49.2989 31.09 48.7009 31.61C48.1289 32.13 47.3229 32.39 46.2829 32.39C45.0869 32.39 44.0729 32.052 43.2409 31.376C42.4349 30.674 42.0189 29.595 41.9929 28.139C41.3689 29.465 40.4069 30.505 39.1069 31.259C37.8329 32.013 36.4159 32.39 34.8559 32.39ZM37.0009 30.674C37.7029 30.674 38.4179 30.466 39.1459 30.05C39.8999 29.634 40.5369 29.036 41.0569 28.256C41.5769 27.45 41.8889 26.488 41.9929 25.37V21.314H39.3799C37.2479 21.314 35.6489 21.795 34.5829 22.757C33.5429 23.693 33.0229 25.019 33.0229 26.735C33.0229 28.165 33.3609 29.179 34.0369 29.777C34.7129 30.375 35.7009 30.674 37.0009 30.674ZM58.8558 32.39C56.7238 32.39 54.9428 31.935 53.5128 31.025C52.0828 30.115 51.3678 28.932 51.3678 27.476C51.3678 26.722 51.5628 26.137 51.9528 25.721C52.3688 25.279 52.9148 25.058 53.5908 25.058C54.1108 25.058 54.5528 25.188 54.9169 25.448C55.2809 25.708 55.5409 26.072 55.6968 26.54C55.1248 27.164 54.8388 27.827 54.8388 28.529C54.8388 29.335 55.2028 30.037 55.9308 30.635C56.6588 31.233 57.6338 31.532 58.8558 31.532C60.4938 31.532 61.8329 31.168 62.8729 30.44C63.9129 29.686 64.4329 28.685 64.4329 27.437C64.4329 26.709 64.2119 26.163 63.7699 25.799C63.3279 25.435 62.4698 25.019 61.1959 24.551L55.3068 22.406C52.9928 21.574 51.8358 20.027 51.8358 17.765C51.8358 15.919 52.4728 14.411 53.7468 13.241C55.0208 12.045 56.7759 11.447 59.0119 11.447C60.8579 11.447 62.4309 11.876 63.7308 12.734C65.0568 13.566 65.7198 14.762 65.7198 16.322C65.7198 16.946 65.5509 17.453 65.2129 17.843C64.8749 18.207 64.4329 18.389 63.8869 18.389C63.3409 18.389 62.8859 18.246 62.5219 17.96C62.1839 17.648 62.0148 17.232 62.0148 16.712C62.3529 16.452 62.5869 16.179 62.7169 15.893C62.8469 15.581 62.9119 15.217 62.9119 14.801C62.9119 14.073 62.5868 13.475 61.9368 13.007C61.3129 12.539 60.3379 12.305 59.0119 12.305C57.8678 12.305 56.8798 12.487 56.0479 12.851C55.2419 13.189 54.6308 13.644 54.2148 14.216C53.7988 14.788 53.5908 15.373 53.5908 15.971C53.5908 16.595 53.8118 17.089 54.2538 17.453C54.7218 17.817 55.5668 18.22 56.7888 18.662L62.2489 20.612C63.5229 21.08 64.4849 21.73 65.1349 22.562C65.7849 23.394 66.1099 24.473 66.1099 25.799C66.1099 27.697 65.5119 29.27 64.3159 30.518C63.1199 31.766 61.2999 32.39 58.8558 32.39ZM73.2697 7.274C72.5417 7.274 71.9177 7.027 71.3977 6.533C70.8777 6.013 70.6177 5.389 70.6177 4.661C70.6177 3.933 70.8647 3.322 71.3587 2.828C71.8787 2.334 72.5157 2.087 73.2697 2.087C73.9717 2.087 74.5697 2.334 75.0637 2.828C75.5577 3.322 75.8047 3.933 75.8047 4.661C75.8047 5.389 75.5577 6.013 75.0637 6.533C74.5697 7.027 73.9717 7.274 73.2697 7.274ZM69.1357 32V31.22L71.8657 30.83V13.007L69.1357 12.617V11.837H75.7657V30.83L78.4957 31.22V32H69.1357ZM80.3701 31.22L83.1001 30.83V12.968L80.3701 12.578V11.798H87.0001V16.01C87.9621 14.606 89.0931 13.501 90.3931 12.695C91.6931 11.863 93.0971 11.447 94.6051 11.447C96.4771 11.447 97.9461 11.915 99.0121 12.851C100.104 13.787 100.65 15.178 100.65 17.024V30.83L103.38 31.22V32H94.4101V31.22L96.7501 30.83V17.102C96.7501 15.75 96.4771 14.71 95.9311 13.982C95.3851 13.228 94.5401 12.851 93.3961 12.851C92.2001 12.851 91.0431 13.293 89.9251 14.177C88.8331 15.035 87.8581 16.101 87.0001 17.375V30.83L89.3401 31.22V32H80.3701V31.22ZM105.633 31.181L109.221 30.596V2.204L105.633 1.658V0.8H117.879C121.727 0.8 124.587 1.619 126.459 3.257C128.331 4.895 129.267 7.261 129.267 10.355C129.267 13.449 128.331 15.815 126.459 17.453C124.587 19.091 121.727 19.91 117.879 19.91H113.511V30.596L117.099 31.181V32H105.633V31.181ZM117.333 18.974C122.143 18.974 124.548 16.361 124.548 11.135V9.575C124.548 4.375 122.143 1.775 117.333 1.775H113.511V18.974H117.333ZM137.459 32.39C135.795 32.39 134.43 31.961 133.364 31.103C132.298 30.219 131.765 28.919 131.765 27.203C131.765 24.759 132.792 23.03 134.846 22.016C136.9 20.976 139.279 20.456 141.983 20.456H144.596V17.453C144.596 16.101 144.44 15.061 144.128 14.333C143.842 13.579 143.387 13.059 142.763 12.773C142.139 12.461 141.294 12.305 140.228 12.305C139.006 12.305 138.096 12.552 137.498 13.046C136.9 13.514 136.601 14.151 136.601 14.957C136.601 15.711 136.965 16.205 137.693 16.439C137.693 17.089 137.446 17.661 136.952 18.155C136.458 18.649 135.873 18.896 135.197 18.896C134.469 18.896 133.884 18.701 133.442 18.311C133 17.895 132.779 17.271 132.779 16.439C132.779 14.931 133.533 13.722 135.041 12.812C136.549 11.902 138.434 11.447 140.696 11.447C145.896 11.447 148.496 13.709 148.496 18.233V29.387C148.496 29.959 148.613 30.401 148.847 30.713C149.107 30.999 149.471 31.142 149.939 31.142C150.381 31.142 150.732 30.999 150.992 30.713C151.252 30.401 151.382 29.985 151.382 29.465H152.201C152.201 30.375 151.902 31.09 151.304 31.61C150.732 32.13 149.926 32.39 148.886 32.39C147.69 32.39 146.676 32.052 145.844 31.376C145.038 30.674 144.622 29.595 144.596 28.139C143.972 29.465 143.01 30.505 141.71 31.259C140.436 32.013 139.019 32.39 137.459 32.39ZM139.604 30.674C140.306 30.674 141.021 30.466 141.749 30.05C142.503 29.634 143.14 29.036 143.66 28.256C144.18 27.45 144.492 26.488 144.596 25.37V21.314H141.983C139.851 21.314 138.252 21.795 137.186 22.757C136.146 23.693 135.626 25.019 135.626 26.735C135.626 28.165 135.964 29.179 136.64 29.777C137.316 30.375 138.304 30.674 139.604 30.674ZM161.459 32.39C159.327 32.39 157.546 31.935 156.116 31.025C154.686 30.115 153.971 28.932 153.971 27.476C153.971 26.722 154.166 26.137 154.556 25.721C154.972 25.279 155.518 25.058 156.194 25.058C156.714 25.058 157.156 25.188 157.52 25.448C157.884 25.708 158.144 26.072 158.3 26.54C157.728 27.164 157.442 27.827 157.442 28.529C157.442 29.335 157.806 30.037 158.534 30.635C159.262 31.233 160.237 31.532 161.459 31.532C163.097 31.532 164.436 31.168 165.476 30.44C166.516 29.686 167.036 28.685 167.036 27.437C167.036 26.709 166.815 26.163 166.373 25.799C165.931 25.435 165.073 25.019 163.799 24.551L157.91 22.406C155.596 21.574 154.439 20.027 154.439 17.765C154.439 15.919 155.076 14.411 156.35 13.241C157.624 12.045 159.379 11.447 161.615 11.447C163.461 11.447 165.034 11.876 166.334 12.734C167.66 13.566 168.323 14.762 168.323 16.322C168.323 16.946 168.154 17.453 167.816 17.843C167.478 18.207 167.036 18.389 166.49 18.389C165.944 18.389 165.489 18.246 165.125 17.96C164.787 17.648 164.618 17.232 164.618 16.712C164.956 16.452 165.19 16.179 165.32 15.893C165.45 15.581 165.515 15.217 165.515 14.801C165.515 14.073 165.19 13.475 164.54 13.007C163.916 12.539 162.941 12.305 161.615 12.305C160.471 12.305 159.483 12.487 158.651 12.851C157.845 13.189 157.234 13.644 156.818 14.216C156.402 14.788 156.194 15.373 156.194 15.971C156.194 16.595 156.415 17.089 156.857 17.453C157.325 17.817 158.17 18.22 159.392 18.662L164.852 20.612C166.126 21.08 167.088 21.73 167.738 22.562C168.388 23.394 168.713 24.473 168.713 25.799C168.713 27.697 168.115 29.27 166.919 30.518C165.723 31.766 163.903 32.39 161.459 32.39ZM175.873 7.274C175.145 7.274 174.521 7.027 174.001 6.533C173.481 6.013 173.221 5.389 173.221 4.661C173.221 3.933 173.468 3.322 173.962 2.828C174.482 2.334 175.119 2.087 175.873 2.087C176.575 2.087 177.173 2.334 177.667 2.828C178.161 3.322 178.408 3.933 178.408 4.661C178.408 5.389 178.161 6.013 177.667 6.533C177.173 7.027 176.575 7.274 175.873 7.274ZM171.739 32V31.22L174.469 30.83V13.007L171.739 12.617V11.837H178.369V30.83L181.099 31.22V32H171.739ZM182.974 31.22L185.704 30.83V12.968L182.974 12.578V11.798H189.604V16.01C190.566 14.606 191.697 13.501 192.997 12.695C194.297 11.863 195.701 11.447 197.209 11.447C199.081 11.447 200.55 11.915 201.616 12.851C202.708 13.787 203.254 15.178 203.254 17.024V30.83L205.984 31.22V32H197.014V31.22L199.354 30.83V17.102C199.354 15.75 199.081 14.71 198.535 13.982C197.989 13.228 197.144 12.851 196 12.851C194.804 12.851 193.647 13.293 192.529 14.177C191.437 15.035 190.462 16.101 189.604 17.375V30.83L191.944 31.22V32H182.974V31.22Z" fill="#CCCCCC"/>
</svg>
