<svg width="266" height="14" viewBox="0 0 266 14" fill="none" xmlns="http://www.w3.org/2000/svg">
<path d="M0.811157 12.1836C0.903931 12.1589 1.09566 12.1217 1.38635 12.0723C1.96155 11.9733 2.33883 11.8403 2.51819 11.6733C2.62952 11.5682 2.70064 11.3672 2.73157 11.0703C2.73775 10.9961 2.7594 10.0529 2.79651 8.24072L2.78723 7.22021L2.79651 5.98633L2.7594 2.82275L2.76868 2.45166C2.76868 2.29085 2.72538 2.16715 2.63879 2.08057C2.5955 2.03727 2.47489 2.01562 2.27698 2.01562C2.11617 2.01562 1.93062 2.03418 1.72034 2.07129C1.4482 2.08366 1.2039 2.1084 0.987427 2.14551C0.950317 2.15169 0.891561 2.16097 0.811157 2.17334L0.80188 1.35693C1.16679 1.23942 1.68941 1.125 2.36975 1.01367C3.4954 0.828125 4.88082 0.735352 6.526 0.735352C7.89905 0.735352 8.90409 0.812663 9.54114 0.967285C10.506 1.2085 11.2915 1.56722 11.8976 2.04346C12.7078 2.6805 13.3139 3.4196 13.7159 4.26074C14.1241 5.0957 14.3282 6.00798 14.3282 6.99756C14.3282 8.24691 14.0561 9.31999 13.5118 10.2168C12.9676 11.1074 12.1852 11.8218 11.1647 12.3599C10.4472 12.7433 9.4731 12.9351 8.24231 12.9351L6.34045 12.8516L5.78381 12.8237L5.03235 12.8423L4.80969 12.8237L4.0304 12.8423L3.00061 12.833C2.9635 12.833 2.64807 12.8547 2.05432 12.8979C1.8564 12.9103 1.59664 12.9196 1.27502 12.9258C1.07711 12.9258 0.92867 12.9289 0.829712 12.9351C0.817342 12.799 0.811157 12.5485 0.811157 12.1836ZM5.31067 1.84863C5.29211 2.04036 5.28284 2.17643 5.28284 2.25684L5.31067 3.83398L5.29211 5.20703C5.31067 5.65234 5.31995 6.04199 5.31995 6.37598L5.31067 7.25732L5.32922 8.73242L5.31067 9.6416C5.31067 10.4889 5.46838 11.0641 5.78381 11.3672C6.2415 11.8001 6.87236 12.0166 7.67639 12.0166C8.2887 12.0166 8.74019 11.9578 9.03088 11.8403C9.637 11.6053 10.1163 11.293 10.4689 10.9033C10.8276 10.5137 11.0997 9.96322 11.2853 9.25195C11.4708 8.53451 11.5636 7.79541 11.5636 7.03467C11.5636 5.78532 11.3626 4.76481 10.9606 3.97314C10.5647 3.18148 10.0205 2.58773 9.32776 2.19189C8.63505 1.78988 7.84029 1.58887 6.94348 1.58887C6.31262 1.58887 5.76835 1.67546 5.31067 1.84863ZM18.2967 6.78418C18.2967 6.01725 18.4452 5.24723 18.742 4.47412C18.9585 3.91748 19.2616 3.40723 19.6512 2.94336C20.0409 2.47949 20.5295 2.0682 21.117 1.70947C21.7046 1.34456 22.3045 1.0848 22.9168 0.930176C23.5291 0.769368 24.2126 0.688965 24.9671 0.688965C26.2536 0.688965 27.37 0.930176 28.3163 1.4126C29.2625 1.89502 30.0078 2.54753 30.5521 3.37012C31.2572 4.4401 31.6097 5.56266 31.6097 6.73779C31.6097 8.48812 31.0129 9.98796 29.8192 11.2373C28.6317 12.4867 26.9772 13.1113 24.8558 13.1113C24.3301 13.1113 23.8384 13.0773 23.3807 13.0093C23.0344 12.9598 22.7313 12.8918 22.4715 12.8052C22.0015 12.6506 21.7386 12.5609 21.683 12.5361C21.0088 12.1527 20.4676 11.7599 20.0594 11.3579C19.6512 10.9559 19.3049 10.5013 19.0204 9.99414C18.8657 9.70964 18.6895 9.19629 18.4915 8.4541C18.3617 7.97786 18.2967 7.42122 18.2967 6.78418ZM24.6146 1.60742C24.0765 1.60742 23.6003 1.73421 23.1859 1.98779C22.7715 2.23519 22.4592 2.51042 22.2489 2.81348C21.8963 3.32682 21.6458 3.88965 21.4974 4.50195C21.349 5.10807 21.2748 5.84717 21.2748 6.71924C21.2748 7.25114 21.2964 7.63151 21.3397 7.86035C21.3521 7.93457 21.3706 8.06136 21.3954 8.24072C21.451 8.6984 21.516 9.03239 21.5902 9.24268C21.8561 10.0282 22.0448 10.5137 22.1561 10.6992C22.3416 11.0146 22.6169 11.327 22.9818 11.6362C23.1673 11.797 23.4364 11.9455 23.7889 12.0815C24.1415 12.2114 24.494 12.2764 24.8465 12.2764C25.5145 12.2764 26.133 12.1217 26.702 11.8125C27.2772 11.4971 27.738 10.9652 28.0843 10.2168C28.4307 9.46842 28.6039 8.4943 28.6039 7.29443C28.6039 6.79964 28.5698 6.12858 28.5018 5.28125L28.4554 5.10498C28.4369 5.0555 28.4059 4.92871 28.3626 4.72461C28.1338 3.71029 27.6947 2.93717 27.0453 2.40527C26.402 1.87337 25.5918 1.60742 24.6146 1.60742ZM35.5689 12.3691C35.7297 12.2826 35.9678 12.2207 36.2833 12.1836C36.5987 12.1403 36.8832 12.0723 37.1368 11.9795C37.1677 11.8558 37.1863 11.7661 37.1924 11.7104C37.2048 11.6239 37.211 11.327 37.211 10.8198L37.2017 8.75098L37.2388 7.6377L37.2203 6.7749L37.2388 6.27393C37.2574 5.59977 37.2667 4.96891 37.2667 4.38135C37.2667 3.09489 37.2512 2.2723 37.2203 1.91357L36.6729 1.80225C36.1719 1.77132 35.838 1.7404 35.671 1.70947L35.6524 1.15283L35.6895 1.05078C35.9988 1.0013 36.2833 0.976562 36.543 0.976562C36.6853 0.976562 36.9729 0.97347 37.4058 0.967285C37.8511 1.00439 38.0924 1.02295 38.1295 1.02295L38.6212 0.995117L39.7808 0.939453C40.5045 0.865234 41.2683 0.828125 42.0723 0.828125C43.3402 0.828125 44.3484 1.15283 45.0967 1.80225C45.8451 2.44548 46.2193 3.18457 46.2193 4.01953C46.2193 4.64421 46.0152 5.21322 45.607 5.72656C45.205 6.23372 44.5834 6.61719 43.7423 6.87695C43.8165 7.00684 43.9154 7.15837 44.0391 7.33154C44.2989 7.70264 44.5092 8.01807 44.67 8.27783L46.1544 10.6807C46.5255 11.3177 46.7667 11.6919 46.878 11.8032C46.9955 11.9084 47.2336 12.0259 47.5924 12.1558C47.8707 12.2609 48.084 12.366 48.2325 12.4712C48.2696 12.5763 48.2882 12.6691 48.2882 12.7495C48.2882 12.8052 48.2851 12.8763 48.2789 12.9629H48.0284L47.8428 12.9722L47.3604 12.9072H46.98C46.7821 12.8763 46.5378 12.8608 46.2471 12.8608L45.3194 12.8516C45.2514 12.8516 45.0349 12.8732 44.67 12.9165C44.503 12.9351 44.37 12.9505 44.2711 12.9629L43.9556 12.3506C43.6959 11.8867 43.5134 11.5404 43.4083 11.3115C43.1361 10.7116 42.6692 9.75602 42.0074 8.44482C41.6981 7.8387 41.4817 7.49544 41.358 7.41504C41.1724 7.28516 40.8539 7.22021 40.4024 7.22021C40.2787 7.22021 40.0684 7.2264 39.7715 7.23877C39.753 7.41813 39.7437 7.63151 39.7437 7.87891L39.7808 9.93848L39.7344 11.6826C39.9076 11.7878 40.1334 11.8682 40.4117 11.9238C40.8941 12.0228 41.3085 12.1403 41.6549 12.2764C41.6549 12.5794 41.6425 12.8083 41.6177 12.9629C41.5002 12.9567 41.426 12.9536 41.3951 12.9536L41.0147 12.9722C39.685 12.8547 38.8964 12.7959 38.649 12.7959C38.4882 12.7959 38.3738 12.799 38.3057 12.8052L37.0255 12.8887C36.6358 12.932 36.2802 12.9536 35.9586 12.9536H35.5596C35.5473 12.799 35.5411 12.7 35.5411 12.6567C35.5411 12.5887 35.5504 12.4928 35.5689 12.3691ZM39.7437 6.3667C40.0406 6.37907 40.2571 6.38525 40.3931 6.38525C41.4446 6.38525 42.1898 6.19661 42.629 5.81934C43.0681 5.44206 43.2877 4.93799 43.2877 4.30713C43.2877 3.91748 43.232 3.55257 43.1207 3.2124C43.0155 2.86605 42.8826 2.60938 42.7217 2.44238C42.4929 2.20117 42.1929 2.01872 41.8218 1.89502C41.5497 1.80225 41.1137 1.75586 40.5137 1.75586C40.2292 1.75586 39.9849 1.77132 39.7808 1.80225L39.7715 1.97852L39.7808 3.23096L39.7623 3.9917L39.7715 5.00293C39.7592 5.28743 39.7499 5.65544 39.7437 6.10693V6.3667ZM50.8001 6.78418C50.8001 6.01725 50.9485 5.24723 51.2454 4.47412C51.4619 3.91748 51.7649 3.40723 52.1546 2.94336C52.5442 2.47949 53.0328 2.0682 53.6204 1.70947C54.208 1.34456 54.8079 1.0848 55.4202 0.930176C56.0325 0.769368 56.7159 0.688965 57.4705 0.688965C58.757 0.688965 59.8733 0.930176 60.8196 1.4126C61.7659 1.89502 62.5112 2.54753 63.0555 3.37012C63.7605 4.4401 64.1131 5.56266 64.1131 6.73779C64.1131 8.48812 63.5162 9.98796 62.3225 11.2373C61.135 12.4867 59.4806 13.1113 57.3592 13.1113C56.8334 13.1113 56.3417 13.0773 55.8841 13.0093C55.5377 12.9598 55.2347 12.8918 54.9749 12.8052C54.5048 12.6506 54.242 12.5609 54.1863 12.5361C53.5122 12.1527 52.971 11.7599 52.5628 11.3579C52.1546 10.9559 51.8082 10.5013 51.5237 9.99414C51.3691 9.70964 51.1928 9.19629 50.9949 8.4541C50.865 7.97786 50.8001 7.42122 50.8001 6.78418ZM57.118 1.60742C56.5799 1.60742 56.1036 1.73421 55.6892 1.98779C55.2749 2.23519 54.9625 2.51042 54.7522 2.81348C54.3997 3.32682 54.1492 3.88965 54.0008 4.50195C53.8523 5.10807 53.7781 5.84717 53.7781 6.71924C53.7781 7.25114 53.7998 7.63151 53.8431 7.86035C53.8554 7.93457 53.874 8.06136 53.8987 8.24072C53.9544 8.6984 54.0193 9.03239 54.0935 9.24268C54.3595 10.0282 54.5481 10.5137 54.6595 10.6992C54.845 11.0146 55.1202 11.327 55.4851 11.6362C55.6707 11.797 55.9397 11.9455 56.2923 12.0815C56.6448 12.2114 56.9973 12.2764 57.3499 12.2764C58.0179 12.2764 58.6363 12.1217 59.2054 11.8125C59.7806 11.4971 60.2413 10.9652 60.5877 10.2168C60.934 9.46842 61.1072 8.4943 61.1072 7.29443C61.1072 6.79964 61.0732 6.12858 61.0052 5.28125L60.9588 5.10498C60.9402 5.0555 60.9093 4.92871 60.866 4.72461C60.6372 3.71029 60.198 2.93717 59.5486 2.40527C58.9054 1.87337 58.0952 1.60742 57.118 1.60742ZM75.1323 1.19922C75.1942 1.40951 75.2498 1.72803 75.2993 2.15479C75.3735 2.79183 75.4107 3.28662 75.4107 3.63916C75.4107 3.75049 75.3983 3.87109 75.3735 4.00098L75.2808 4.02881L74.6128 3.98242L74.5015 3.96387C74.2293 3.14746 73.9572 2.59391 73.6851 2.30322C73.215 1.80843 72.6615 1.56104 72.0244 1.56104C71.4183 1.56104 70.9359 1.72184 70.5772 2.04346C70.2246 2.35889 70.0483 2.75163 70.0483 3.22168C70.0483 3.61751 70.2246 3.99788 70.5772 4.36279C70.9235 4.7277 71.6595 5.07715 72.7852 5.41113C73.1624 5.52246 73.617 5.70182 74.1489 5.94922C74.687 6.19661 75.0952 6.46566 75.3735 6.75635C75.7446 7.13981 75.9982 7.5109 76.1343 7.86963C76.2765 8.22217 76.3477 8.66439 76.3477 9.19629C76.3477 9.77767 76.2394 10.3498 76.023 10.9126C75.9054 11.2095 75.7168 11.4909 75.457 11.7568C75.2715 11.9424 74.9839 12.1619 74.5942 12.4155C74.2046 12.6629 73.7995 12.8423 73.3789 12.9536C72.9645 13.0649 72.4295 13.1206 71.7739 13.1206C71.341 13.1206 70.8246 13.0588 70.2246 12.9351L69.1113 12.6104C68.8021 12.5238 68.6073 12.4465 68.5269 12.3784C68.4959 12.3537 68.4681 12.2949 68.4434 12.2021V12.1001C68.4434 12.0321 68.4279 11.6084 68.397 10.8291C68.3846 10.4271 68.3784 10.1426 68.3784 9.97559V9.62305L69.2319 9.60449C69.5288 10.291 69.7205 10.7054 69.8071 10.8477C69.9989 11.1631 70.2092 11.4198 70.438 11.6177C70.673 11.8094 70.9513 11.964 71.273 12.0815C71.5946 12.1929 71.944 12.2485 72.3213 12.2485C72.6553 12.2485 73.0233 12.1774 73.4253 12.0352C73.8273 11.8929 74.1489 11.661 74.3901 11.3394C74.6375 11.0116 74.7612 10.6621 74.7612 10.291C74.7612 9.83333 74.5479 9.40967 74.1211 9.02002C73.8613 8.77881 73.1624 8.45719 72.0244 8.05518C70.8864 7.65316 70.0978 7.29443 69.6587 6.979C69.2196 6.66357 68.8732 6.243 68.6196 5.71729C68.3661 5.18538 68.2393 4.67513 68.2393 4.18652C68.2393 3.20312 68.5918 2.36816 69.2969 1.68164C70.002 0.995117 71.041 0.651855 72.4141 0.651855C72.7109 0.651855 73.1501 0.704427 73.7315 0.80957C74.084 0.871419 74.551 1.0013 75.1323 1.19922ZM79.8708 12.9072C79.8708 12.7217 79.8894 12.5021 79.9265 12.2485L81.0862 12.0444C81.2284 12.0135 81.3985 11.964 81.5964 11.896L81.717 9.57666C81.6923 8.7417 81.6799 8.11702 81.6799 7.70264L81.6892 7.47998C81.7077 7.2264 81.717 6.58936 81.717 5.56885L81.6985 5.2998L81.717 4.52051L81.7077 3.71338V3.31445C81.7077 2.95573 81.6799 2.53516 81.6242 2.05273C81.6181 2.00944 81.5933 1.93522 81.55 1.83008C81.5005 1.81152 81.4449 1.79915 81.383 1.79297C81.3274 1.78678 81.2686 1.77751 81.2068 1.76514C80.9656 1.72184 80.7089 1.69092 80.4367 1.67236L80.2976 1.63525C80.1306 1.6167 80.0038 1.59196 79.9172 1.56104C79.8987 1.38167 79.8894 1.26725 79.8894 1.21777C79.8894 1.14355 79.9079 1.0415 79.945 0.911621C80.0687 0.886882 80.2419 0.874512 80.4646 0.874512C80.6872 0.874512 80.8419 0.871419 80.9284 0.865234C81.683 0.945638 82.2427 0.988932 82.6076 0.995117C82.7746 0.995117 82.9416 1.0013 83.1086 1.01367C83.2818 1.01986 83.4333 1.02295 83.5632 1.02295C83.7673 1.02295 84.2652 0.992025 85.0569 0.930176C85.1867 0.899251 85.329 0.883789 85.4836 0.883789C85.7125 0.883789 85.9042 0.896159 86.0588 0.920898C86.065 1.05078 86.0681 1.14355 86.0681 1.19922C86.0681 1.29818 86.0557 1.41878 86.031 1.56104L84.3982 1.8208C84.2621 1.88265 84.1941 1.97233 84.1941 2.08984L84.2219 2.43311L84.2312 2.58154L84.2219 2.98975L84.2033 3.30518V3.37939C84.2095 3.44743 84.2126 3.50618 84.2126 3.55566L84.2033 4.73389C84.2095 4.84521 84.2126 4.92871 84.2126 4.98438C84.2126 5.0153 84.2064 5.11426 84.1941 5.28125C84.1879 5.38021 84.1848 5.48226 84.1848 5.5874C84.1848 5.68018 84.1941 5.89974 84.2126 6.24609C84.3858 6.27702 84.5311 6.29557 84.6487 6.30176L86.0217 6.32959H86.6897L88.3596 6.33887L89.9831 6.29248C90.1934 6.29248 90.4161 6.27083 90.6511 6.22754C90.6635 6.01725 90.6727 5.50081 90.6789 4.67822L90.6975 4.26074L90.6418 2.68359L90.5769 2.03418C90.5583 1.99089 90.515 1.95068 90.447 1.91357C90.2305 1.78988 89.7976 1.65072 89.1482 1.49609C89.0307 1.47135 88.9193 1.44043 88.8142 1.40332C88.8266 1.18685 88.8513 1.01058 88.8884 0.874512C89.0245 0.868327 89.108 0.865234 89.1389 0.865234L90.0388 0.874512C90.614 0.94873 91.1985 0.98584 91.7922 0.98584C91.9283 0.98584 92.0365 0.982747 92.1169 0.976562L93.323 0.939453C93.4343 0.933268 93.5425 0.927083 93.6477 0.920898C93.8703 0.871419 94.0992 0.84668 94.3342 0.84668C94.5136 0.84668 94.73 0.855957 94.9836 0.874512C94.9774 1.11572 94.962 1.33529 94.9372 1.5332C94.3682 1.65072 93.994 1.7373 93.8147 1.79297C93.6415 1.84245 93.4652 1.91357 93.2859 2.00635L93.2302 2.19189V2.34961L93.2395 2.59082L93.2302 2.71143C93.2178 2.84131 93.2116 2.94027 93.2116 3.0083V3.24023C93.2178 3.51855 93.2209 3.67318 93.2209 3.7041V4.88232L93.2302 5.77295L93.2116 6.95117C93.2055 7.22331 93.2147 7.77995 93.2395 8.62109V9.93848L93.258 11.0332C93.258 11.2373 93.2518 11.4847 93.2395 11.7754C93.3694 11.8125 93.49 11.8434 93.6013 11.8682C94.1827 11.9919 94.6218 12.1187 94.9187 12.2485L94.9465 12.8979C94.6991 12.9041 94.5538 12.9072 94.5105 12.9072C94.2136 12.9072 93.8734 12.8887 93.49 12.8516C92.9828 12.7959 92.1664 12.7681 91.0407 12.7681C90.5336 12.7681 89.878 12.8083 89.074 12.8887C88.9874 12.8887 88.8822 12.8701 88.7585 12.833C88.7647 12.5485 88.7802 12.3475 88.8049 12.23L89.5193 12.063L90.2707 11.9424C90.3449 11.9238 90.4408 11.896 90.5583 11.8589C90.6264 11.3579 90.6635 10.526 90.6697 9.36328L90.6789 8.57471C90.6418 8.24691 90.6233 7.85417 90.6233 7.39648C90.3944 7.37793 90.147 7.36556 89.8811 7.35938L85.5764 7.31299L85.4929 7.30371L85.428 7.29443C85.3847 7.29443 85.3352 7.29753 85.2795 7.30371C85.1187 7.3099 84.9826 7.31299 84.8713 7.31299H84.6115C84.494 7.31299 84.3611 7.33464 84.2126 7.37793L84.1755 8.07373V8.19434C84.1879 8.36133 84.1941 8.46956 84.1941 8.51904V11.395C84.1941 11.5558 84.2033 11.7197 84.2219 11.8867L84.3147 11.9424L85.6784 12.1558C85.7465 12.1805 85.799 12.196 85.8362 12.2021C85.9166 12.2207 85.9846 12.2485 86.0403 12.2856C86.0588 12.4279 86.0681 12.5238 86.0681 12.5732C86.0681 12.6536 86.0557 12.765 86.031 12.9072C85.8083 12.9134 85.6197 12.9165 85.4651 12.9165C85.329 12.9165 85.2022 12.9134 85.0847 12.9072C85.029 12.9072 84.9765 12.9041 84.927 12.8979L83.6189 12.8423C83.3096 12.8114 82.8767 12.7959 82.32 12.7959L82.1252 12.8052C81.8655 12.8175 81.7139 12.8268 81.6706 12.833C81.2872 12.8825 80.6872 12.9072 79.8708 12.9072ZM98.7573 12.9443V12.2764C98.881 12.2393 99.0851 12.1867 99.3696 12.1187C99.7716 12.0197 100.072 11.9176 100.269 11.8125C100.381 11.6208 100.436 11.3548 100.436 11.0146L100.427 9.91992L100.446 7.80469L100.436 7.30371C100.48 6.0791 100.501 5.44824 100.501 5.41113L100.483 4.17725L100.511 3.67627L100.464 2.61865L100.455 2.21973C100.449 2.15788 100.427 2.05892 100.39 1.92285C100.137 1.80534 99.7252 1.73112 99.1562 1.7002C99.0201 1.69401 98.9119 1.68473 98.8315 1.67236L98.8037 0.855957L101.457 0.967285C101.785 0.979655 101.989 0.98584 102.069 0.98584C102.434 0.98584 103.019 0.9611 103.823 0.911621C104.274 0.880697 104.559 0.862142 104.676 0.855957C104.682 0.97347 104.685 1.07243 104.685 1.15283C104.685 1.25798 104.679 1.39404 104.667 1.56104C104.42 1.64762 104.135 1.73112 103.813 1.81152C103.498 1.88574 103.238 1.96305 103.034 2.04346C102.997 2.20426 102.978 2.4362 102.978 2.73926C102.978 3.00521 102.988 3.22168 103.006 3.38867C102.988 4.43392 102.978 5.23796 102.978 5.80078L102.988 8.25L102.96 9.49316L102.978 11.3486L102.969 11.7012C102.969 11.7507 102.982 11.8218 103.006 11.9146C103.384 11.995 103.727 12.0506 104.036 12.0815C104.092 12.0877 104.28 12.1125 104.602 12.1558C104.627 12.3413 104.639 12.4959 104.639 12.6196C104.639 12.6877 104.636 12.7928 104.63 12.9351C104.549 12.9351 104.488 12.9382 104.444 12.9443C104.246 12.9567 104.132 12.9629 104.101 12.9629C104.058 12.9629 103.977 12.9536 103.86 12.9351C103.773 12.9227 103.362 12.8794 102.626 12.8052L100.984 12.7866C100.656 12.7866 100.18 12.8175 99.5551 12.8794C99.1469 12.9165 98.881 12.9382 98.7573 12.9443ZM108.19 0.930176C108.543 0.94873 108.849 0.976562 109.109 1.01367C109.597 1.08171 110.163 1.11572 110.806 1.11572C111.029 1.11572 111.601 1.09717 112.523 1.06006C113.902 1.00439 115.148 0.976562 116.261 0.976562L117.941 0.958008C118.318 0.958008 118.875 1.00439 119.611 1.09717C119.722 1.22087 119.778 1.38786 119.778 1.59814V3.50928L119.796 3.88965C119.796 3.92676 119.793 3.98242 119.787 4.05664L119.406 4.0752C119.357 4.0752 119.252 4.06901 119.091 4.05664C119.035 3.93294 118.961 3.75049 118.868 3.50928L118.497 2.85059C118.355 2.57227 118.157 2.28776 117.903 1.99707C117.749 1.95378 117.551 1.92904 117.31 1.92285C117.248 1.91667 117.059 1.9012 116.744 1.87646C116.169 1.82699 115.55 1.80225 114.888 1.80225C114.134 1.80225 113.46 1.81462 112.866 1.83936C112.847 1.99398 112.838 2.60319 112.838 3.66699L112.857 5.22559V6.39453C113.011 6.41309 113.144 6.42236 113.256 6.42236C114.363 6.42236 115.151 6.40072 115.621 6.35742C116.091 6.31413 116.382 6.25537 116.493 6.18115C116.605 6.10075 116.704 5.96468 116.79 5.77295C116.846 5.63688 116.954 5.18229 117.115 4.40918L117.236 4.3999L117.774 4.40918C117.798 4.95964 117.811 5.37712 117.811 5.66162C117.811 6.31104 117.805 6.72852 117.792 6.91406C117.786 7.09961 117.783 7.24495 117.783 7.3501C117.783 7.51709 117.792 7.78613 117.811 8.15723C117.829 8.52214 117.839 8.79427 117.839 8.97363V9.17773H117.18C117.155 9.07878 117.109 8.87467 117.041 8.56543C116.917 7.99023 116.806 7.63151 116.707 7.48926C116.632 7.37793 116.509 7.29443 116.336 7.23877C116.212 7.19548 115.754 7.17383 114.963 7.17383C114.029 7.17383 113.327 7.19857 112.857 7.24805C112.85 7.40885 112.847 7.514 112.847 7.56348C112.847 8.29948 112.86 8.91178 112.884 9.40039L112.866 11.4043C112.866 11.6393 112.949 11.8001 113.116 11.8867C113.37 12.0166 114.146 12.0815 115.445 12.0815C116.305 12.0815 117.035 12.0166 117.634 11.8867C118.049 11.7939 118.414 11.5868 118.729 11.2651C119.15 10.8507 119.499 10.2694 119.778 9.521C119.969 9.50244 120.127 9.49316 120.251 9.49316C120.319 9.49316 120.421 9.49626 120.557 9.50244C120.538 9.65706 120.523 9.78695 120.51 9.89209L120.455 10.1704L120.111 11.9238L119.944 12.9814C119.542 13 119.224 13.0093 118.989 13.0093C118.643 13.0093 117.718 12.9784 116.215 12.9165C115.157 12.8732 113.883 12.8516 112.393 12.8516C111.651 12.8516 110.738 12.8825 109.656 12.9443H109.266L108.144 12.9814V12.3413C108.261 12.3104 108.496 12.2764 108.849 12.2393C109.492 12.165 109.937 12.0661 110.185 11.9424C110.253 11.763 110.287 11.5373 110.287 11.2651C110.287 11.16 110.284 10.9806 110.278 10.7271L110.287 10.4395L110.259 6.94189L110.268 5.89355L110.222 4.40918L110.231 3.36084L110.148 2.21045C110.148 2.17952 110.141 2.11768 110.129 2.0249C110.067 1.95687 109.974 1.91357 109.851 1.89502C109.783 1.88265 109.69 1.8641 109.572 1.83936C109.22 1.76514 108.88 1.72184 108.552 1.70947C108.434 1.70329 108.298 1.69092 108.144 1.67236L108.19 0.930176ZM138.43 1.19922C138.492 1.40951 138.547 1.72803 138.597 2.15479C138.671 2.79183 138.708 3.28662 138.708 3.63916C138.708 3.75049 138.696 3.87109 138.671 4.00098L138.578 4.02881L137.91 3.98242L137.799 3.96387C137.527 3.14746 137.255 2.59391 136.983 2.30322C136.512 1.80843 135.959 1.56104 135.322 1.56104C134.716 1.56104 134.233 1.72184 133.875 2.04346C133.522 2.35889 133.346 2.75163 133.346 3.22168C133.346 3.61751 133.522 3.99788 133.875 4.36279C134.221 4.7277 134.957 5.07715 136.083 5.41113C136.46 5.52246 136.914 5.70182 137.446 5.94922C137.984 6.19661 138.393 6.46566 138.671 6.75635C139.042 7.13981 139.296 7.5109 139.432 7.86963C139.574 8.22217 139.645 8.66439 139.645 9.19629C139.645 9.77767 139.537 10.3498 139.32 10.9126C139.203 11.2095 139.014 11.4909 138.755 11.7568C138.569 11.9424 138.281 12.1619 137.892 12.4155C137.502 12.6629 137.097 12.8423 136.676 12.9536C136.262 13.0649 135.727 13.1206 135.071 13.1206C134.638 13.1206 134.122 13.0588 133.522 12.9351L132.409 12.6104C132.1 12.5238 131.905 12.4465 131.824 12.3784C131.793 12.3537 131.766 12.2949 131.741 12.2021V12.1001C131.741 12.0321 131.725 11.6084 131.694 10.8291C131.682 10.4271 131.676 10.1426 131.676 9.97559V9.62305L132.529 9.60449C132.826 10.291 133.018 10.7054 133.105 10.8477C133.296 11.1631 133.507 11.4198 133.735 11.6177C133.97 11.8094 134.249 11.964 134.57 12.0815C134.892 12.1929 135.241 12.2485 135.619 12.2485C135.953 12.2485 136.321 12.1774 136.723 12.0352C137.125 11.8929 137.446 11.661 137.688 11.3394C137.935 11.0116 138.059 10.6621 138.059 10.291C138.059 9.83333 137.845 9.40967 137.419 9.02002C137.159 8.77881 136.46 8.45719 135.322 8.05518C134.184 7.65316 133.395 7.29443 132.956 6.979C132.517 6.66357 132.171 6.243 131.917 5.71729C131.664 5.18538 131.537 4.67513 131.537 4.18652C131.537 3.20312 131.889 2.36816 132.594 1.68164C133.299 0.995117 134.338 0.651855 135.712 0.651855C136.008 0.651855 136.448 0.704427 137.029 0.80957C137.381 0.871419 137.848 1.0013 138.43 1.19922ZM153.976 1.125C154.057 1.31055 154.221 1.83936 154.468 2.71143C154.579 3.10726 154.638 3.52783 154.644 3.97314H153.8C153.206 3.132 152.594 2.52897 151.963 2.16406C151.332 1.79297 150.627 1.60742 149.848 1.60742C148.889 1.60742 148.116 1.98161 147.529 2.72998C146.731 3.7443 146.332 5.15755 146.332 6.96973C146.332 8.02116 146.4 8.76953 146.536 9.21484C146.759 9.93848 147.04 10.5291 147.38 10.9868C147.64 11.3332 147.98 11.6084 148.401 11.8125C148.945 12.0908 149.526 12.23 150.145 12.23C150.825 12.23 151.481 12.0197 152.112 11.5991C152.749 11.1724 153.358 10.5384 153.939 9.69727C154.168 9.65397 154.468 9.62923 154.839 9.62305C154.814 9.85807 154.774 10.1024 154.719 10.356C154.7 10.4549 154.629 10.8477 154.505 11.5342L154.422 11.8125L154.292 12.2485C153.915 12.5392 153.383 12.7588 152.696 12.9072C152.016 13.0495 151.178 13.1206 150.182 13.1206C149.421 13.1206 148.701 13.0495 148.02 12.9072C147.346 12.765 146.768 12.5392 146.285 12.23C145.58 11.7847 145.027 11.3022 144.625 10.7827C144.223 10.2632 143.923 9.69727 143.725 9.08496C143.533 8.47266 143.437 7.78613 143.437 7.02539C143.437 5.18229 144.043 3.66081 145.256 2.46094C146.474 1.26107 148.027 0.661133 149.913 0.661133C150.68 0.661133 151.4 0.701335 152.075 0.781738C152.755 0.855957 153.389 0.970378 153.976 1.125ZM158.325 12.9072C158.325 12.7217 158.344 12.5021 158.381 12.2485L159.541 12.0444C159.683 12.0135 159.853 11.964 160.051 11.896L160.171 9.57666C160.147 8.7417 160.134 8.11702 160.134 7.70264L160.144 7.47998C160.162 7.2264 160.171 6.58936 160.171 5.56885L160.153 5.2998L160.171 4.52051L160.162 3.71338V3.31445C160.162 2.95573 160.134 2.53516 160.079 2.05273C160.072 2.00944 160.048 1.93522 160.004 1.83008C159.955 1.81152 159.899 1.79915 159.837 1.79297C159.782 1.78678 159.723 1.77751 159.661 1.76514C159.42 1.72184 159.163 1.69092 158.891 1.67236L158.752 1.63525C158.585 1.6167 158.458 1.59196 158.372 1.56104C158.353 1.38167 158.344 1.26725 158.344 1.21777C158.344 1.14355 158.362 1.0415 158.399 0.911621C158.523 0.886882 158.696 0.874512 158.919 0.874512C159.142 0.874512 159.296 0.871419 159.383 0.865234C160.137 0.945638 160.697 0.988932 161.062 0.995117C161.229 0.995117 161.396 1.0013 161.563 1.01367C161.736 1.01986 161.888 1.02295 162.018 1.02295C162.222 1.02295 162.72 0.992025 163.511 0.930176C163.641 0.899251 163.783 0.883789 163.938 0.883789C164.167 0.883789 164.359 0.896159 164.513 0.920898C164.519 1.05078 164.523 1.14355 164.523 1.19922C164.523 1.29818 164.51 1.41878 164.485 1.56104L162.853 1.8208C162.717 1.88265 162.648 1.97233 162.648 2.08984L162.676 2.43311L162.686 2.58154L162.676 2.98975L162.658 3.30518V3.37939C162.664 3.44743 162.667 3.50618 162.667 3.55566L162.658 4.73389C162.664 4.84521 162.667 4.92871 162.667 4.98438C162.667 5.0153 162.661 5.11426 162.648 5.28125C162.642 5.38021 162.639 5.48226 162.639 5.5874C162.639 5.68018 162.648 5.89974 162.667 6.24609C162.84 6.27702 162.986 6.29557 163.103 6.30176L164.476 6.32959H165.144L166.814 6.33887L168.438 6.29248C168.648 6.29248 168.87 6.27083 169.106 6.22754C169.118 6.01725 169.127 5.50081 169.133 4.67822L169.152 4.26074L169.096 2.68359L169.031 2.03418C169.013 1.99089 168.969 1.95068 168.901 1.91357C168.685 1.78988 168.252 1.65072 167.603 1.49609C167.485 1.47135 167.374 1.44043 167.269 1.40332C167.281 1.18685 167.306 1.01058 167.343 0.874512C167.479 0.868327 167.562 0.865234 167.593 0.865234L168.493 0.874512C169.068 0.94873 169.653 0.98584 170.247 0.98584C170.383 0.98584 170.491 0.982747 170.571 0.976562L171.777 0.939453C171.889 0.933268 171.997 0.927083 172.102 0.920898C172.325 0.871419 172.554 0.84668 172.789 0.84668C172.968 0.84668 173.184 0.855957 173.438 0.874512C173.432 1.11572 173.416 1.33529 173.392 1.5332C172.823 1.65072 172.448 1.7373 172.269 1.79297C172.096 1.84245 171.92 1.91357 171.74 2.00635L171.685 2.19189V2.34961L171.694 2.59082L171.685 2.71143C171.672 2.84131 171.666 2.94027 171.666 3.0083V3.24023C171.672 3.51855 171.675 3.67318 171.675 3.7041V4.88232L171.685 5.77295L171.666 6.95117C171.66 7.22331 171.669 7.77995 171.694 8.62109V9.93848L171.712 11.0332C171.712 11.2373 171.706 11.4847 171.694 11.7754C171.824 11.8125 171.944 11.8434 172.056 11.8682C172.637 11.9919 173.076 12.1187 173.373 12.2485L173.401 12.8979C173.154 12.9041 173.008 12.9072 172.965 12.9072C172.668 12.9072 172.328 12.8887 171.944 12.8516C171.437 12.7959 170.621 12.7681 169.495 12.7681C168.988 12.7681 168.332 12.8083 167.528 12.8887C167.442 12.8887 167.337 12.8701 167.213 12.833C167.219 12.5485 167.235 12.3475 167.259 12.23L167.974 12.063L168.725 11.9424C168.799 11.9238 168.895 11.896 169.013 11.8589C169.081 11.3579 169.118 10.526 169.124 9.36328L169.133 8.57471C169.096 8.24691 169.078 7.85417 169.078 7.39648C168.849 7.37793 168.601 7.36556 168.335 7.35938L164.031 7.31299L163.947 7.30371L163.882 7.29443C163.839 7.29443 163.79 7.29753 163.734 7.30371C163.573 7.3099 163.437 7.31299 163.326 7.31299H163.066C162.948 7.31299 162.815 7.33464 162.667 7.37793L162.63 8.07373V8.19434C162.642 8.36133 162.648 8.46956 162.648 8.51904V11.395C162.648 11.5558 162.658 11.7197 162.676 11.8867L162.769 11.9424L164.133 12.1558C164.201 12.1805 164.253 12.196 164.291 12.2021C164.371 12.2207 164.439 12.2485 164.495 12.2856C164.513 12.4279 164.523 12.5238 164.523 12.5732C164.523 12.6536 164.51 12.765 164.485 12.9072C164.263 12.9134 164.074 12.9165 163.919 12.9165C163.783 12.9165 163.657 12.9134 163.539 12.9072C163.483 12.9072 163.431 12.9041 163.381 12.8979L162.073 12.8423C161.764 12.8114 161.331 12.7959 160.774 12.7959L160.58 12.8052C160.32 12.8175 160.168 12.8268 160.125 12.833C159.742 12.8825 159.142 12.9072 158.325 12.9072ZM177.212 12.9443V12.2764C177.335 12.2393 177.539 12.1867 177.824 12.1187C178.226 12.0197 178.526 11.9176 178.724 11.8125C178.835 11.6208 178.891 11.3548 178.891 11.0146L178.882 9.91992L178.9 7.80469L178.891 7.30371C178.934 6.0791 178.956 5.44824 178.956 5.41113L178.937 4.17725L178.965 3.67627L178.919 2.61865L178.909 2.21973C178.903 2.15788 178.882 2.05892 178.844 1.92285C178.591 1.80534 178.18 1.73112 177.611 1.7002C177.475 1.69401 177.366 1.68473 177.286 1.67236L177.258 0.855957L179.911 0.967285C180.239 0.979655 180.443 0.98584 180.524 0.98584C180.889 0.98584 181.473 0.9611 182.277 0.911621C182.729 0.880697 183.013 0.862142 183.131 0.855957C183.137 0.97347 183.14 1.07243 183.14 1.15283C183.14 1.25798 183.134 1.39404 183.121 1.56104C182.874 1.64762 182.589 1.73112 182.268 1.81152C181.952 1.88574 181.693 1.96305 181.489 2.04346C181.451 2.20426 181.433 2.4362 181.433 2.73926C181.433 3.00521 181.442 3.22168 181.461 3.38867C181.442 4.43392 181.433 5.23796 181.433 5.80078L181.442 8.25L181.414 9.49316L181.433 11.3486L181.424 11.7012C181.424 11.7507 181.436 11.8218 181.461 11.9146C181.838 11.995 182.181 12.0506 182.49 12.0815C182.546 12.0877 182.735 12.1125 183.056 12.1558C183.081 12.3413 183.094 12.4959 183.094 12.6196C183.094 12.6877 183.09 12.7928 183.084 12.9351C183.004 12.9351 182.942 12.9382 182.899 12.9443C182.701 12.9567 182.586 12.9629 182.555 12.9629C182.512 12.9629 182.432 12.9536 182.314 12.9351C182.228 12.9227 181.816 12.8794 181.08 12.8052L179.438 12.7866C179.11 12.7866 178.634 12.8175 178.01 12.8794C177.601 12.9165 177.335 12.9382 177.212 12.9443ZM186.645 0.930176C186.997 0.94873 187.303 0.976562 187.563 1.01367C188.052 1.08171 188.617 1.11572 189.261 1.11572C189.483 1.11572 190.055 1.09717 190.977 1.06006C192.356 1.00439 193.603 0.976562 194.716 0.976562L196.395 0.958008C196.772 0.958008 197.329 1.00439 198.065 1.09717C198.176 1.22087 198.232 1.38786 198.232 1.59814V3.50928L198.25 3.88965C198.25 3.92676 198.247 3.98242 198.241 4.05664L197.861 4.0752C197.811 4.0752 197.706 4.06901 197.545 4.05664C197.49 3.93294 197.416 3.75049 197.323 3.50928L196.952 2.85059C196.809 2.57227 196.611 2.28776 196.358 1.99707C196.203 1.95378 196.005 1.92904 195.764 1.92285C195.702 1.91667 195.514 1.9012 195.198 1.87646C194.623 1.82699 194.005 1.80225 193.343 1.80225C192.588 1.80225 191.914 1.81462 191.32 1.83936C191.302 1.99398 191.292 2.60319 191.292 3.66699L191.311 5.22559V6.39453C191.466 6.41309 191.599 6.42236 191.71 6.42236C192.817 6.42236 193.606 6.40072 194.076 6.35742C194.546 6.31413 194.836 6.25537 194.948 6.18115C195.059 6.10075 195.158 5.96468 195.245 5.77295C195.3 5.63688 195.409 5.18229 195.569 4.40918L195.69 4.3999L196.228 4.40918C196.253 4.95964 196.265 5.37712 196.265 5.66162C196.265 6.31104 196.259 6.72852 196.247 6.91406C196.24 7.09961 196.237 7.24495 196.237 7.3501C196.237 7.51709 196.247 7.78613 196.265 8.15723C196.284 8.52214 196.293 8.79427 196.293 8.97363V9.17773H195.634C195.61 9.07878 195.563 8.87467 195.495 8.56543C195.371 7.99023 195.26 7.63151 195.161 7.48926C195.087 7.37793 194.963 7.29443 194.79 7.23877C194.666 7.19548 194.209 7.17383 193.417 7.17383C192.483 7.17383 191.781 7.19857 191.311 7.24805C191.305 7.40885 191.302 7.514 191.302 7.56348C191.302 8.29948 191.314 8.91178 191.339 9.40039L191.32 11.4043C191.32 11.6393 191.404 11.8001 191.571 11.8867C191.824 12.0166 192.601 12.0815 193.899 12.0815C194.759 12.0815 195.489 12.0166 196.089 11.8867C196.503 11.7939 196.868 11.5868 197.184 11.2651C197.604 10.8507 197.954 10.2694 198.232 9.521C198.424 9.50244 198.581 9.49316 198.705 9.49316C198.773 9.49316 198.875 9.49626 199.011 9.50244C198.993 9.65706 198.977 9.78695 198.965 9.89209L198.909 10.1704L198.566 11.9238L198.399 12.9814C197.997 13 197.678 13.0093 197.443 13.0093C197.097 13.0093 196.172 12.9784 194.669 12.9165C193.612 12.8732 192.338 12.8516 190.847 12.8516C190.105 12.8516 189.193 12.8825 188.11 12.9443H187.721L186.598 12.9814V12.3413C186.716 12.3104 186.951 12.2764 187.303 12.2393C187.946 12.165 188.392 12.0661 188.639 11.9424C188.707 11.763 188.741 11.5373 188.741 11.2651C188.741 11.16 188.738 10.9806 188.732 10.7271L188.741 10.4395L188.713 6.94189L188.723 5.89355L188.676 4.40918L188.686 3.36084L188.602 2.21045C188.602 2.17952 188.596 2.11768 188.583 2.0249C188.522 1.95687 188.429 1.91357 188.305 1.89502C188.237 1.88265 188.144 1.8641 188.027 1.83936C187.674 1.76514 187.334 1.72184 187.006 1.70947C186.889 1.70329 186.753 1.69092 186.598 1.67236L186.645 0.930176ZM213.417 1.125C213.497 1.31055 213.661 1.83936 213.908 2.71143C214.02 3.10726 214.078 3.52783 214.085 3.97314H213.24C212.647 3.132 212.034 2.52897 211.404 2.16406C210.773 1.79297 210.068 1.60742 209.288 1.60742C208.33 1.60742 207.557 1.98161 206.969 2.72998C206.171 3.7443 205.772 5.15755 205.772 6.96973C205.772 8.02116 205.84 8.76953 205.976 9.21484C206.199 9.93848 206.48 10.5291 206.821 10.9868C207.08 11.3332 207.42 11.6084 207.841 11.8125C208.385 12.0908 208.967 12.23 209.585 12.23C210.265 12.23 210.921 12.0197 211.552 11.5991C212.189 11.1724 212.798 10.5384 213.38 9.69727C213.608 9.65397 213.908 9.62923 214.279 9.62305C214.255 9.85807 214.215 10.1024 214.159 10.356C214.14 10.4549 214.069 10.8477 213.946 11.5342L213.862 11.8125L213.732 12.2485C213.355 12.5392 212.823 12.7588 212.136 12.9072C211.456 13.0495 210.618 13.1206 209.622 13.1206C208.862 13.1206 208.141 13.0495 207.461 12.9072C206.786 12.765 206.208 12.5392 205.726 12.23C205.021 11.7847 204.467 11.3022 204.065 10.7827C203.663 10.2632 203.363 9.69727 203.165 9.08496C202.974 8.47266 202.878 7.78613 202.878 7.02539C202.878 5.18229 203.484 3.66081 204.696 2.46094C205.914 1.26107 207.467 0.661133 209.353 0.661133C210.12 0.661133 210.841 0.701335 211.515 0.781738C212.195 0.855957 212.829 0.970378 213.417 1.125ZM217.766 12.9072C217.766 12.7217 217.784 12.5021 217.821 12.2485L218.981 12.0444C219.123 12.0135 219.293 11.964 219.491 11.896L219.612 9.57666C219.587 8.7417 219.575 8.11702 219.575 7.70264L219.584 7.47998C219.602 7.2264 219.612 6.58936 219.612 5.56885L219.593 5.2998L219.612 4.52051L219.602 3.71338V3.31445C219.602 2.95573 219.575 2.53516 219.519 2.05273C219.513 2.00944 219.488 1.93522 219.445 1.83008C219.395 1.81152 219.34 1.79915 219.278 1.79297C219.222 1.78678 219.163 1.77751 219.101 1.76514C218.86 1.72184 218.604 1.69092 218.331 1.67236L218.192 1.63525C218.025 1.6167 217.899 1.59196 217.812 1.56104C217.793 1.38167 217.784 1.26725 217.784 1.21777C217.784 1.14355 217.803 1.0415 217.84 0.911621C217.963 0.886882 218.137 0.874512 218.359 0.874512C218.582 0.874512 218.737 0.871419 218.823 0.865234C219.578 0.945638 220.137 0.988932 220.502 0.995117C220.669 0.995117 220.836 1.0013 221.003 1.01367C221.177 1.01986 221.328 1.02295 221.458 1.02295C221.662 1.02295 222.16 0.992025 222.952 0.930176C223.081 0.899251 223.224 0.883789 223.378 0.883789C223.607 0.883789 223.799 0.896159 223.954 0.920898C223.96 1.05078 223.963 1.14355 223.963 1.19922C223.963 1.29818 223.95 1.41878 223.926 1.56104L222.293 1.8208C222.157 1.88265 222.089 1.97233 222.089 2.08984L222.117 2.43311L222.126 2.58154L222.117 2.98975L222.098 3.30518V3.37939C222.104 3.44743 222.107 3.50618 222.107 3.55566L222.098 4.73389C222.104 4.84521 222.107 4.92871 222.107 4.98438C222.107 5.0153 222.101 5.11426 222.089 5.28125C222.083 5.38021 222.08 5.48226 222.08 5.5874C222.08 5.68018 222.089 5.89974 222.107 6.24609C222.281 6.27702 222.426 6.29557 222.543 6.30176L223.916 6.32959H224.584L226.254 6.33887L227.878 6.29248C228.088 6.29248 228.311 6.27083 228.546 6.22754C228.558 6.01725 228.567 5.50081 228.574 4.67822L228.592 4.26074L228.537 2.68359L228.472 2.03418C228.453 1.99089 228.41 1.95068 228.342 1.91357C228.125 1.78988 227.692 1.65072 227.043 1.49609C226.925 1.47135 226.814 1.44043 226.709 1.40332C226.721 1.18685 226.746 1.01058 226.783 0.874512C226.919 0.868327 227.003 0.865234 227.034 0.865234L227.934 0.874512C228.509 0.94873 229.093 0.98584 229.687 0.98584C229.823 0.98584 229.931 0.982747 230.012 0.976562L231.218 0.939453C231.329 0.933268 231.437 0.927083 231.542 0.920898C231.765 0.871419 231.994 0.84668 232.229 0.84668C232.408 0.84668 232.625 0.855957 232.878 0.874512C232.872 1.11572 232.857 1.33529 232.832 1.5332C232.263 1.65072 231.889 1.7373 231.709 1.79297C231.536 1.84245 231.36 1.91357 231.181 2.00635L231.125 2.19189V2.34961L231.134 2.59082L231.125 2.71143C231.113 2.84131 231.106 2.94027 231.106 3.0083V3.24023C231.113 3.51855 231.116 3.67318 231.116 3.7041V4.88232L231.125 5.77295L231.106 6.95117C231.1 7.22331 231.109 7.77995 231.134 8.62109V9.93848L231.153 11.0332C231.153 11.2373 231.147 11.4847 231.134 11.7754C231.264 11.8125 231.385 11.8434 231.496 11.8682C232.077 11.9919 232.517 12.1187 232.813 12.2485L232.841 12.8979C232.594 12.9041 232.448 12.9072 232.405 12.9072C232.108 12.9072 231.768 12.8887 231.385 12.8516C230.878 12.7959 230.061 12.7681 228.935 12.7681C228.428 12.7681 227.773 12.8083 226.969 12.8887C226.882 12.8887 226.777 12.8701 226.653 12.833C226.659 12.5485 226.675 12.3475 226.7 12.23L227.414 12.063L228.165 11.9424C228.24 11.9238 228.336 11.896 228.453 11.8589C228.521 11.3579 228.558 10.526 228.564 9.36328L228.574 8.57471C228.537 8.24691 228.518 7.85417 228.518 7.39648C228.289 7.37793 228.042 7.36556 227.776 7.35938L223.471 7.31299L223.388 7.30371L223.323 7.29443C223.279 7.29443 223.23 7.29753 223.174 7.30371C223.013 7.3099 222.877 7.31299 222.766 7.31299H222.506C222.389 7.31299 222.256 7.33464 222.107 7.37793L222.07 8.07373V8.19434C222.083 8.36133 222.089 8.46956 222.089 8.51904V11.395C222.089 11.5558 222.098 11.7197 222.117 11.8867L222.209 11.9424L223.573 12.1558C223.641 12.1805 223.694 12.196 223.731 12.2021C223.811 12.2207 223.879 12.2485 223.935 12.2856C223.954 12.4279 223.963 12.5238 223.963 12.5732C223.963 12.6536 223.95 12.765 223.926 12.9072C223.703 12.9134 223.514 12.9165 223.36 12.9165C223.224 12.9165 223.097 12.9134 222.979 12.9072C222.924 12.9072 222.871 12.9041 222.822 12.8979L221.514 12.8423C221.204 12.8114 220.771 12.7959 220.215 12.7959L220.02 12.8052C219.76 12.8175 219.609 12.8268 219.565 12.833C219.182 12.8825 218.582 12.9072 217.766 12.9072ZM236.272 0.930176C236.624 0.94873 236.93 0.976562 237.19 1.01367C237.679 1.08171 238.245 1.11572 238.888 1.11572C239.11 1.11572 239.683 1.09717 240.604 1.06006C241.983 1.00439 243.23 0.976562 244.343 0.976562L246.022 0.958008C246.399 0.958008 246.956 1.00439 247.692 1.09717C247.803 1.22087 247.859 1.38786 247.859 1.59814V3.50928L247.878 3.88965C247.878 3.92676 247.874 3.98242 247.868 4.05664L247.488 4.0752C247.438 4.0752 247.333 4.06901 247.173 4.05664C247.117 3.93294 247.043 3.75049 246.95 3.50928L246.579 2.85059C246.436 2.57227 246.239 2.28776 245.985 1.99707C245.83 1.95378 245.632 1.92904 245.391 1.92285C245.329 1.91667 245.141 1.9012 244.825 1.87646C244.25 1.82699 243.632 1.80225 242.97 1.80225C242.215 1.80225 241.541 1.81462 240.947 1.83936C240.929 1.99398 240.92 2.60319 240.92 3.66699L240.938 5.22559V6.39453C241.093 6.41309 241.226 6.42236 241.337 6.42236C242.444 6.42236 243.233 6.40072 243.703 6.35742C244.173 6.31413 244.464 6.25537 244.575 6.18115C244.686 6.10075 244.785 5.96468 244.872 5.77295C244.927 5.63688 245.036 5.18229 245.196 4.40918L245.317 4.3999L245.855 4.40918C245.88 4.95964 245.892 5.37712 245.892 5.66162C245.892 6.31104 245.886 6.72852 245.874 6.91406C245.867 7.09961 245.864 7.24495 245.864 7.3501C245.864 7.51709 245.874 7.78613 245.892 8.15723C245.911 8.52214 245.92 8.79427 245.92 8.97363V9.17773H245.261C245.237 9.07878 245.19 8.87467 245.122 8.56543C244.999 7.99023 244.887 7.63151 244.788 7.48926C244.714 7.37793 244.59 7.29443 244.417 7.23877C244.293 7.19548 243.836 7.17383 243.044 7.17383C242.11 7.17383 241.408 7.19857 240.938 7.24805C240.932 7.40885 240.929 7.514 240.929 7.56348C240.929 8.29948 240.941 8.91178 240.966 9.40039L240.947 11.4043C240.947 11.6393 241.031 11.8001 241.198 11.8867C241.451 12.0166 242.228 12.0815 243.527 12.0815C244.386 12.0815 245.116 12.0166 245.716 11.8867C246.13 11.7939 246.495 11.5868 246.811 11.2651C247.231 10.8507 247.581 10.2694 247.859 9.521C248.051 9.50244 248.208 9.49316 248.332 9.49316C248.4 9.49316 248.502 9.49626 248.638 9.50244C248.62 9.65706 248.604 9.78695 248.592 9.89209L248.536 10.1704L248.193 11.9238L248.026 12.9814C247.624 13 247.305 13.0093 247.07 13.0093C246.724 13.0093 245.799 12.9784 244.297 12.9165C243.239 12.8732 241.965 12.8516 240.474 12.8516C239.732 12.8516 238.82 12.8825 237.737 12.9443H237.348L236.225 12.9814V12.3413C236.343 12.3104 236.578 12.2764 236.93 12.2393C237.574 12.165 238.019 12.0661 238.266 11.9424C238.334 11.763 238.368 11.5373 238.368 11.2651C238.368 11.16 238.365 10.9806 238.359 10.7271L238.368 10.4395L238.34 6.94189L238.35 5.89355L238.303 4.40918L238.313 3.36084L238.229 2.21045C238.229 2.17952 238.223 2.11768 238.211 2.0249C238.149 1.95687 238.056 1.91357 237.932 1.89502C237.864 1.88265 237.771 1.8641 237.654 1.83936C237.301 1.76514 236.961 1.72184 236.633 1.70947C236.516 1.70329 236.38 1.69092 236.225 1.67236L236.272 0.930176ZM252.421 12.3691C252.582 12.2826 252.82 12.2207 253.136 12.1836C253.451 12.1403 253.736 12.0723 253.989 11.9795C254.02 11.8558 254.039 11.7661 254.045 11.7104C254.057 11.6239 254.063 11.327 254.063 10.8198L254.054 8.75098L254.091 7.6377L254.073 6.7749L254.091 6.27393C254.11 5.59977 254.119 4.96891 254.119 4.38135C254.119 3.09489 254.104 2.2723 254.073 1.91357L253.525 1.80225C253.024 1.77132 252.69 1.7404 252.523 1.70947L252.505 1.15283L252.542 1.05078C252.851 1.0013 253.136 0.976562 253.395 0.976562C253.538 0.976562 253.825 0.97347 254.258 0.967285C254.703 1.00439 254.945 1.02295 254.982 1.02295L255.473 0.995117L256.633 0.939453C257.357 0.865234 258.121 0.828125 258.925 0.828125C260.193 0.828125 261.201 1.15283 261.949 1.80225C262.697 2.44548 263.072 3.18457 263.072 4.01953C263.072 4.64421 262.868 5.21322 262.459 5.72656C262.057 6.23372 261.436 6.61719 260.595 6.87695C260.669 7.00684 260.768 7.15837 260.891 7.33154C261.151 7.70264 261.362 8.01807 261.522 8.27783L263.007 10.6807C263.378 11.3177 263.619 11.6919 263.73 11.8032C263.848 11.9084 264.086 12.0259 264.445 12.1558C264.723 12.2609 264.936 12.366 265.085 12.4712C265.122 12.5763 265.14 12.6691 265.14 12.7495C265.14 12.8052 265.137 12.8763 265.131 12.9629H264.881L264.695 12.9722L264.213 12.9072H263.832C263.634 12.8763 263.39 12.8608 263.099 12.8608L262.172 12.8516C262.104 12.8516 261.887 12.8732 261.522 12.9165C261.355 12.9351 261.222 12.9505 261.123 12.9629L260.808 12.3506C260.548 11.8867 260.366 11.5404 260.261 11.3115C259.988 10.7116 259.522 9.75602 258.86 8.44482C258.55 7.8387 258.334 7.49544 258.21 7.41504C258.025 7.28516 257.706 7.22021 257.255 7.22021C257.131 7.22021 256.921 7.2264 256.624 7.23877C256.605 7.41813 256.596 7.63151 256.596 7.87891L256.633 9.93848L256.587 11.6826C256.76 11.7878 256.986 11.8682 257.264 11.9238C257.746 12.0228 258.161 12.1403 258.507 12.2764C258.507 12.5794 258.495 12.8083 258.47 12.9629C258.353 12.9567 258.278 12.9536 258.247 12.9536L257.867 12.9722C256.537 12.8547 255.749 12.7959 255.501 12.7959C255.341 12.7959 255.226 12.799 255.158 12.8052L253.878 12.8887C253.488 12.932 253.133 12.9536 252.811 12.9536H252.412C252.4 12.799 252.393 12.7 252.393 12.6567C252.393 12.5887 252.403 12.4928 252.421 12.3691ZM256.596 6.3667C256.893 6.37907 257.109 6.38525 257.245 6.38525C258.297 6.38525 259.042 6.19661 259.481 5.81934C259.92 5.44206 260.14 4.93799 260.14 4.30713C260.14 3.91748 260.084 3.55257 259.973 3.2124C259.868 2.86605 259.735 2.60938 259.574 2.44238C259.345 2.20117 259.045 2.01872 258.674 1.89502C258.402 1.80225 257.966 1.75586 257.366 1.75586C257.082 1.75586 256.837 1.77132 256.633 1.80225L256.624 1.97852L256.633 3.23096L256.615 3.9917L256.624 5.00293C256.612 5.28743 256.602 5.65544 256.596 6.10693V6.3667Z" fill="#CCCCCC"/>
</svg>
