<svg width="13" height="13" viewBox="0 0 13 13" fill="none" xmlns="http://www.w3.org/2000/svg">
<path d="M3.82259 0C1.72427 0 0 1.72191 0 3.82259V9.17741C0 11.2757 1.72191 13 3.82259 13H9.17741C11.2757 13 13 11.2781 13 9.17741V3.82318C13 1.72427 11.2781 0 9.17741 0H3.82259ZM3.82259 1.18182H9.17741C9.52433 1.18135 9.86794 1.24934 10.1885 1.38188C10.5091 1.51443 10.8004 1.70893 11.0458 1.95424C11.2911 2.19955 11.4856 2.49085 11.6181 2.81146C11.7507 3.13206 11.8186 3.47567 11.8182 3.82259V9.17741C11.8186 9.52433 11.7507 9.86794 11.6181 10.1885C11.4856 10.5091 11.2911 10.8004 11.0458 11.0458C10.8004 11.2911 10.5091 11.4856 10.1885 11.6181C9.86794 11.7507 9.52433 11.8186 9.17741 11.8182H3.82318C3.47621 11.8187 3.13254 11.7508 2.81187 11.6183C2.4912 11.4858 2.19982 11.2913 1.95445 11.046C1.70908 10.8006 1.51452 10.5093 1.38194 10.1887C1.24936 9.86804 1.18135 9.52438 1.18182 9.17741V3.82318C1.18127 3.47621 1.2492 3.13254 1.38171 2.81187C1.51423 2.4912 1.70871 2.19982 1.95403 1.95445C2.19935 1.70908 2.49068 1.51452 2.81132 1.38194C3.13196 1.24936 3.47562 1.18135 3.82259 1.18182ZM9.98991 2.47473C9.91952 2.47441 9.84976 2.48805 9.78466 2.51484C9.71957 2.54164 9.66043 2.58106 9.61065 2.63083C9.56088 2.68061 9.52145 2.73975 9.49466 2.80485C9.46787 2.86994 9.45423 2.9397 9.45455 3.01009C9.45455 3.30791 9.69209 3.54545 9.98991 3.54545C10.0604 3.54585 10.1302 3.53227 10.1953 3.50551C10.2605 3.47875 10.3197 3.43934 10.3695 3.38956C10.4194 3.33977 10.4589 3.28061 10.4857 3.21547C10.5125 3.15034 10.5262 3.08053 10.5259 3.01009C10.5262 2.93965 10.5125 2.86984 10.4857 2.80471C10.4589 2.73958 10.4194 2.68041 10.3695 2.63062C10.3197 2.58084 10.2605 2.54143 10.1953 2.51467C10.1302 2.48791 10.0604 2.47434 9.98991 2.47473ZM6.5 2.95455C4.55 2.95455 2.95455 4.55 2.95455 6.5C2.95455 8.45 4.55 10.0455 6.5 10.0455C8.45 10.0455 10.0455 8.45 10.0455 6.5C10.0455 4.55 8.45 2.95455 6.5 2.95455ZM6.5 4.13636C7.81359 4.13636 8.86364 5.18641 8.86364 6.5C8.86364 7.81359 7.81359 8.86364 6.5 8.86364C5.18641 8.86364 4.13636 7.81359 4.13636 6.5C4.13636 5.18641 5.18641 4.13636 6.5 4.13636Z" fill="#C1C1C1"/>
</svg>
