<svg width="113" height="22" viewBox="0 0 113 22" fill="none" xmlns="http://www.w3.org/2000/svg">
<path d="M0.632886 0.149998V22H5.42089V13.26H7.54889V8.928H5.42089V0.149998H0.632886ZM12.7929 11.094L26.8149 19.834L22.3309 22L8.95489 13.26V8.928L22.3309 0.149998L26.8149 2.316L12.7929 11.094ZM32.8884 2.772V19.416L37.3344 22H45.0484V17.706H37.8284V4.634H45.2004V0.149998H37.3344L32.8884 2.772ZM59.2224 7.218H54.2824V4.634H46.9104V0.149998H54.7764L59.2224 2.772V7.218ZM59.2224 8.928V19.416L54.7764 22H47.0624V17.706H54.2824V13.26H46.9104V8.928H59.2224ZM67.9448 2.81L72.2388 0.188H80.0668V4.482H72.6948V8.928H80.0668V13.222H72.2388L67.9448 10.6V2.81ZM72.6948 14.894V17.516H80.0668V21.962H72.2388L67.9448 19.34V14.894H72.6948ZM94.0128 19.34L89.7188 21.962H81.8908V17.516H89.2628V13.222H81.8908V8.928H89.2628V4.482H81.8908V0.188H89.2628L94.0128 2.81V19.34ZM112.66 0.0739992V22L108.328 21.962V5.28L100.462 8.548V3.608L108.328 0.0739992H112.66Z" fill="#CCCCCC"/>
</svg>
