<svg width="13" height="12" viewBox="0 0 13 12" fill="none" xmlns="http://www.w3.org/2000/svg">
<path d="M3.65245 0.52124C1.86393 0.52124 0.410034 2.04052 0.410034 3.87062C0.410034 4.50924 0.690179 5.06211 0.950436 5.4618C1.10375 5.69851 1.28036 5.91821 1.47744 6.11739L6.15126 10.9601L6.4621 11.2812L6.77294 10.9601L11.4472 6.11739C11.4472 6.11739 12.515 5.14562 12.515 3.87062C12.515 2.04052 11.0611 0.52124 9.27262 0.52124C7.78803 0.52124 6.83217 1.44388 6.46253 1.8333C6.0929 1.44388 5.13704 0.52124 3.65245 0.52124ZM3.65245 1.41441C4.94422 1.41441 6.13829 2.71218 6.13829 2.71218L6.46253 3.0891L6.78678 2.71218C6.78678 2.71218 7.98085 1.41441 9.27262 1.41441C10.5882 1.41441 11.6504 2.52908 11.6504 3.87062C11.6504 4.5597 10.8398 5.48949 10.8398 5.48949L6.46253 10.0112L2.08528 5.48949C2.08528 5.48949 1.87604 5.28183 1.66636 4.95895C1.45712 4.63696 1.27468 4.21628 1.27468 3.87062C1.27468 2.52908 2.33689 1.41441 3.65245 1.41441Z" fill="#151112"/>
</svg>
