<svg width="18" height="16" viewBox="0 0 18 16" fill="none" xmlns="http://www.w3.org/2000/svg">
<path d="M4.82143 0C2.16193 0 0 2.25915 0 4.98049C0 5.93011 0.416571 6.75222 0.803571 7.34656C1.03155 7.69854 1.29417 8.02523 1.58721 8.32141L8.53714 15.5225L8.99936 16L9.46157 15.5225L16.4121 8.32141C16.4121 8.32141 18 6.8764 18 4.98049C18 2.25915 15.8381 0 13.1786 0C10.971 0 9.54964 1.37196 9 1.95103C8.45036 1.37196 7.029 0 4.82143 0ZM4.82143 1.32813C6.74229 1.32813 8.51786 3.25791 8.51786 3.25791L9 3.81838L9.48214 3.25791C9.48214 3.25791 11.2577 1.32813 13.1786 1.32813C15.1348 1.32813 16.7143 2.98564 16.7143 4.98049C16.7143 6.00515 15.5089 7.38773 15.5089 7.38773L9 14.1114L2.49107 7.38773C2.49107 7.38773 2.17993 7.07894 1.86814 6.59882C1.557 6.12003 1.28571 5.49448 1.28571 4.98049C1.28571 2.98564 2.86521 1.32813 4.82143 1.32813Z" fill="white"/>
</svg>
