<svg width="12" height="13" viewBox="0 0 12 13" fill="none" xmlns="http://www.w3.org/2000/svg">
<path d="M1.51029 4.47615e-07C1.31205 -0.000154803 1.11574 0.0400769 0.932543 0.118397C0.74935 0.196718 0.582874 0.311593 0.442624 0.45646C0.302373 0.601327 0.191096 0.773348 0.11515 0.962696C0.0392033 1.15204 7.50024e-05 1.35501 0 1.56C0 2.42273 0.676 3.13773 1.50857 3.13773C2.34229 3.13773 3.01886 2.42273 3.01886 1.56118C3.01901 1.35622 2.9801 1.15324 2.90435 0.963833C2.82861 0.774429 2.71751 0.602316 2.57741 0.457331C2.43731 0.312347 2.27096 0.197332 2.08786 0.118861C1.90475 0.04039 1.70849 3.88799e-07 1.51029 4.47615e-07ZM8.87714 4.13636C7.60914 4.13636 6.884 4.82182 6.53543 5.50373H6.49886V4.32014H4V13H6.604V8.7035C6.604 7.57132 6.68629 6.47695 8.04114 6.47695C9.37657 6.47695 9.396 7.76809 9.396 8.775V13H12V8.23254C12 5.89964 11.5149 4.13636 8.87714 4.13636ZM0.207429 4.31955V13H2.81314V4.31955H0.207429Z" fill="#C1C1C1"/>
</svg>
