<svg width="193" height="29" viewBox="0 0 193 29" fill="none" xmlns="http://www.w3.org/2000/svg">
<path d="M0.484741 28L3.20789 0.197266H10.349L11.7963 10.8042C12.0121 12.4165 12.1898 13.9653 12.3295 15.4507C12.4818 16.9233 12.6024 18.3579 12.6913 19.7544C12.9198 17.3042 13.1102 15.3745 13.2626 13.9653C13.4276 12.5435 13.5609 11.4897 13.6625 10.8042L15.4525 0.197266H22.5175L24.8597 28H19.2421L18.6517 15.0889C18.639 14.7842 18.62 14.3271 18.5946 13.7178C18.4296 10.3408 18.347 7.57324 18.347 5.41504L14.7289 28H10.7108L7.30212 5.2627C7.30212 7.1543 7.18787 9.8584 6.95935 13.375C6.90857 14.1748 6.87048 14.7715 6.84509 15.165L5.98816 28H0.484741ZM44.634 18.8022H48.3283C47.9474 16.8599 47.6047 14.8286 47.3 12.7085C46.9953 10.5757 46.7287 8.32861 46.5002 5.96729C46.2209 8.04932 45.9225 10.1631 45.6052 12.3086C45.3005 14.4414 44.9767 16.606 44.634 18.8022ZM37.2262 28L43.7009 0.197266H49.509L55.6789 28H50.1374L49.2043 23.125H43.6247L42.7677 28H37.2262ZM74.7676 12.2515C74.831 12.2515 74.9326 12.2578 75.0722 12.2705C75.2246 12.2832 75.3325 12.2896 75.396 12.2896C76.602 12.2896 77.5097 11.9531 78.1191 11.2803C78.7285 10.6074 79.0332 9.61719 79.0332 8.30957C79.0332 6.97656 78.7539 6.00537 78.1953 5.396C77.6367 4.78662 76.7417 4.48193 75.5102 4.48193C75.3198 4.48193 75.1738 4.48828 75.0722 4.50098C74.9707 4.50098 74.8755 4.50732 74.7866 4.52002L74.7676 12.2515ZM69.3974 28V0.197266H75.1675C78.3413 0.197266 80.6391 0.819336 82.061 2.06348C83.4956 3.30762 84.2129 5.29443 84.2129 8.02393C84.2129 10.0044 83.8447 11.5977 83.1084 12.8037C82.3847 13.9971 81.2866 14.835 79.8139 15.3174L85.146 28H79.2998L74.7676 16.498V28H69.3974ZM101.607 28V5.33887H97.3601V0.197266H111.433V5.33887H107.186V28H101.607ZM129.893 18.8022H133.587C133.207 16.8599 132.864 14.8286 132.559 12.7085C132.254 10.5757 131.988 8.32861 131.759 5.96729C131.48 8.04932 131.182 10.1631 130.864 12.3086C130.56 14.4414 130.236 16.606 129.893 18.8022ZM122.485 28L128.96 0.197266H134.768L140.938 28H135.397L134.463 23.125H128.884L128.027 28H122.485ZM154.657 28V0.197266H160.274L165.892 15.165C166.057 15.6475 166.286 16.3901 166.578 17.3931C166.882 18.3833 167.225 19.5513 167.606 20.897C167.314 18.9292 167.098 17.1265 166.958 15.4888C166.819 13.8384 166.749 12.3022 166.749 10.8804V0.197266H171.891V28H166.749L160.655 12.4419C160.554 12.2134 160.287 11.2676 159.855 9.60449C159.652 8.84277 159.494 8.24609 159.379 7.81445C159.506 8.89355 159.601 10.1123 159.665 11.4707C159.728 12.8164 159.76 14.4287 159.76 16.3076V28H154.657ZM192.369 24.8389C192.369 25.8037 192.046 26.6099 191.398 27.2573C190.763 27.9048 189.97 28.2285 189.018 28.2285C188.078 28.2285 187.285 27.9048 186.637 27.2573C185.99 26.6099 185.666 25.8037 185.666 24.8389C185.666 23.8867 185.99 23.0933 186.637 22.4585C187.285 21.811 188.078 21.4873 189.018 21.4873C189.957 21.4873 190.751 21.811 191.398 22.4585C192.046 23.0933 192.369 23.8867 192.369 24.8389Z" fill="#CCCCCC"/>
</svg>
