<svg width="15" height="16" viewBox="0 0 15 16" fill="none" xmlns="http://www.w3.org/2000/svg">
<path d="M7.5 0C4.60875 0 2.25 2.28727 2.25 5.09091C2.25 6.84364 3.1725 8.4 4.5705 9.31855C1.89525 10.4313 0 13.0058 0 16H1.5C1.5 12.7782 4.1775 10.1818 7.5 10.1818C10.8225 10.1818 13.5 12.7782 13.5 16H15C15 13.0058 13.1047 10.432 10.4295 9.31782C11.143 8.85075 11.7276 8.22123 12.1321 7.48436C12.5367 6.74748 12.7488 5.92569 12.75 5.09091C12.75 2.28727 10.3912 0 7.5 0ZM7.5 1.45455C9.57975 1.45455 11.25 3.07418 11.25 5.09091C11.25 7.10764 9.57975 8.72727 7.5 8.72727C5.42025 8.72727 3.75 7.10764 3.75 5.09091C3.75 3.07418 5.42025 1.45455 7.5 1.45455Z" fill="white"/>
</svg>
