<svg width="155" height="123" viewBox="0 0 155 123" fill="none" xmlns="http://www.w3.org/2000/svg">
<path d="M35.256 0.499979C45.28 0.499979 53.514 3.72198 59.958 10.166C66.402 16.3713 69.624 24.6053 69.624 34.868C69.624 39.6413 69.0273 44.4147 67.834 49.188C66.6407 53.9613 64.1347 61.1213 60.316 70.668L39.552 122.22H4.11L19.504 65.656C13.5373 63.0307 8.88333 59.0927 5.542 53.842C2.20067 48.5913 0.53 42.2667 0.53 34.868C0.53 24.6053 3.752 16.3713 10.196 10.166C16.8787 3.72198 25.232 0.499979 35.256 0.499979ZM119.744 0.499979C129.768 0.499979 138.002 3.72198 144.446 10.166C150.89 16.3713 154.112 24.6053 154.112 34.868C154.112 39.6413 153.515 44.4147 152.322 49.188C151.129 53.9613 148.623 61.1213 144.804 70.668L124.04 122.22H88.598L103.992 65.656C98.0253 63.0307 93.3713 59.0927 90.03 53.842C86.6887 48.5913 85.018 42.2667 85.018 34.868C85.018 24.6053 88.24 16.3713 94.684 10.166C101.367 3.72198 109.72 0.499979 119.744 0.499979Z" fill="#EAEAEA"/>
</svg>
