<svg width="16" height="16" viewBox="0 0 16 16" fill="none" xmlns="http://www.w3.org/2000/svg">
<path d="M9.77892 0C6.34986 0 3.55784 2.79191 3.55784 6.22084C3.55784 7.71073 4.08041 9.07621 4.95758 10.1481L0 15.1042L0.895214 16L5.85217 11.0426C6.95924 11.9502 8.34736 12.4448 9.77892 12.4417C13.208 12.4417 16 9.64977 16 6.22084C16 2.79191 13.208 0 9.77892 0ZM9.77892 1.24417C12.5349 1.24417 14.7558 3.46501 14.7558 6.22084C14.7558 8.97667 12.5349 11.1975 9.77892 11.1975C7.02298 11.1975 4.80205 8.97667 4.80205 6.22084C4.80205 3.46501 7.02298 1.24417 9.77892 1.24417Z" fill="white"/>
</svg>
