<svg width="15" height="17" viewBox="0 0 15 17" fill="none" xmlns="http://www.w3.org/2000/svg">
<path d="M7.50034 0C5.63864 0 4.11051 1.47377 4.11051 3.26923V3.92308H0.762712L0.720678 4.53638L0.042712 16.3056L0 17H15L14.958 16.305L14.28 4.53573L14.2373 3.92308H10.8902V3.26923C10.8902 1.47377 9.36203 0 7.50034 0ZM7.50034 1.30769C8.03976 1.30769 8.55709 1.51435 8.93852 1.88221C9.31995 2.25007 9.53424 2.749 9.53424 3.26923V3.92308H5.46644V3.26923C5.46644 2.749 5.68073 2.25007 6.06216 1.88221C6.44359 1.51435 6.96092 1.30769 7.50034 1.30769ZM2.0339 5.23077H4.11051V7.19231H5.46644V5.23077H9.53424V7.19231H10.8902V5.23077H12.9668L13.56 15.6923H1.44136L2.0339 5.23077Z" fill="white"/>
</svg>
