<svg width="15" height="12" viewBox="0 0 15 12" fill="none" xmlns="http://www.w3.org/2000/svg">
<path d="M15 1.4235C14.4383 1.6682 13.8425 1.82847 13.2325 1.89897C13.8747 1.52049 14.3554 0.92527 14.585 0.224072C13.981 0.576358 13.3205 0.825112 12.6319 0.959721C12.21 0.515842 11.6621 0.207155 11.0596 0.0737995C10.4571 -0.0595562 9.82767 -0.0114109 9.2533 0.211975C8.67893 0.43536 8.18614 0.823651 7.83901 1.32636C7.49188 1.82907 7.30646 2.42293 7.30688 3.03073C7.30688 3.26877 7.33375 3.49943 7.38812 3.72025C6.16407 3.66096 4.96645 3.34849 3.8733 2.80322C2.78016 2.25795 1.81603 1.49211 1.04375 0.555606C0.769361 1.01785 0.62544 1.54385 0.626875 2.07919C0.626875 3.12915 1.16875 4.05671 1.99625 4.59983C1.50747 4.58457 1.02954 4.45422 0.6025 4.21971V4.25846C0.602077 4.95792 0.847768 5.63595 1.29782 6.17732C1.74787 6.71869 2.37451 7.08999 3.07125 7.22812C2.61817 7.3504 2.14258 7.3685 1.68125 7.28102C1.87776 7.88276 2.26034 8.40908 2.77555 8.78644C3.29077 9.16381 3.91288 9.37337 4.555 9.38586C3.91665 9.87896 3.18576 10.2433 2.40415 10.4581C1.62255 10.6729 0.80558 10.7339 0 10.6376C1.40658 11.5284 3.04421 12.0014 4.71688 12C10.3781 12 13.4744 7.38435 13.4744 3.38134C13.4744 3.25217 13.4694 3.11931 13.4644 2.98952C14.066 2.56084 14.5858 2.03088 15 1.42412V1.4235Z" fill="#C1C1C1"/>
</svg>
