<svg width="227" height="26" viewBox="0 0 227 26" fill="none" xmlns="http://www.w3.org/2000/svg">
<path d="M31.4105 1.13867L24.3226 25H21.3168L15.8246 5.14648L10.2953 25H7.36365L0.275757 1.13867H3.80115L8.81091 20.0645L13.8578 1.13867H17.8285L22.8754 20.0645L27.8851 1.13867H31.4105ZM44.2608 21.3262C45.1266 20.015 45.5596 18.4935 45.5596 16.7617C45.5596 15.0299 45.1266 13.4961 44.2608 12.1602C43.3949 10.8242 42.1579 10.1562 40.5498 10.1562C38.8923 10.1562 37.6305 10.8242 36.7647 12.1602C35.8988 13.4714 35.4658 15.0052 35.4658 16.7617C35.4658 18.5182 35.8988 20.0521 36.7647 21.3633C37.6305 22.6497 38.8923 23.293 40.5498 23.293C42.1579 23.293 43.3949 22.6374 44.2608 21.3262ZM48.6768 16.7617C48.6768 19.582 47.9098 21.7344 46.376 23.2188C44.8421 24.7031 42.9001 25.4453 40.5498 25.4453C38.1501 25.4453 36.1957 24.7031 34.6865 23.2188C33.1774 21.7344 32.4229 19.582 32.4229 16.7617C32.4229 13.9167 33.1774 11.7643 34.6865 10.3047C36.1957 8.82031 38.1501 8.07812 40.5498 8.07812C42.9248 8.07812 44.8669 8.82031 46.376 10.3047C47.9098 11.7643 48.6768 13.9167 48.6768 16.7617ZM62.6403 21.3262C63.5062 20.015 63.9391 18.4935 63.9391 16.7617C63.9391 15.0299 63.5062 13.4961 62.6403 12.1602C61.7744 10.8242 60.5374 10.1562 58.9294 10.1562C57.2718 10.1562 56.0101 10.8242 55.1442 12.1602C54.2783 13.4714 53.8454 15.0052 53.8454 16.7617C53.8454 18.5182 54.2783 20.0521 55.1442 21.3633C56.0101 22.6497 57.2718 23.293 58.9294 23.293C60.5374 23.293 61.7744 22.6374 62.6403 21.3262ZM67.0563 16.7617C67.0563 19.582 66.2894 21.7344 64.7555 23.2188C63.2217 24.7031 61.2796 25.4453 58.9294 25.4453C56.5296 25.4453 54.5752 24.7031 53.0661 23.2188C51.557 21.7344 50.8024 19.582 50.8024 16.7617C50.8024 13.9167 51.557 11.7643 53.0661 10.3047C54.5752 8.82031 56.5296 8.07812 58.9294 8.07812C61.3044 8.07812 63.2464 8.82031 64.7555 10.3047C66.2894 11.7643 67.0563 13.9167 67.0563 16.7617ZM78.4222 3.58789C77.7789 3.31576 77.1852 3.17969 76.6409 3.17969C75.7503 3.17969 75.1071 3.40234 74.7112 3.84766C74.3154 4.29297 74.1175 5.03516 74.1175 6.07422V8.48633H78.0882V10.6387H74.1175V25H71.1116V10.6387H67.846V8.48633H71.1116V5.96289C71.1116 4.0332 71.5075 2.69727 72.2991 1.95508C73.1155 1.21289 74.3649 0.841797 76.0472 0.841797C76.9131 0.841797 77.7047 0.940755 78.4222 1.13867V3.58789ZM90.79 21.3262C91.6559 20.015 92.0888 18.4935 92.0888 16.7617C92.0888 15.0299 91.6559 13.4961 90.79 12.1602C89.9241 10.8242 88.6871 10.1562 87.079 10.1562C85.4215 10.1562 84.1598 10.8242 83.2939 12.1602C82.428 13.4714 81.9951 15.0052 81.9951 16.7617C81.9951 18.5182 82.428 20.0521 83.2939 21.3633C84.1598 22.6497 85.4215 23.293 87.079 23.293C88.6871 23.293 89.9241 22.6374 90.79 21.3262ZM95.206 16.7617C95.206 19.582 94.4391 21.7344 92.9052 23.2188C91.3714 24.7031 89.4293 25.4453 87.079 25.4453C84.6793 25.4453 82.7249 24.7031 81.2158 23.2188C79.7066 21.7344 78.9521 19.582 78.9521 16.7617C78.9521 13.9167 79.7066 11.7643 81.2158 10.3047C82.7249 8.82031 84.6793 8.07812 87.079 8.07812C89.454 8.07812 91.3961 8.82031 92.9052 10.3047C94.4391 11.7643 95.206 13.9167 95.206 16.7617ZM107.017 11.1582C102.96 11.1582 100.931 12.6921 100.931 15.7598V25H97.9254V8.48633H100.931V10.75C101.401 9.93359 102.032 9.35221 102.824 9.00586C103.64 8.65951 105.038 8.48633 107.017 8.48633V11.1582ZM120.61 16.873C120.61 15.0176 120.115 13.4219 119.125 12.0859C118.16 10.7253 116.948 10.0449 115.488 10.0449C114.029 10.0449 112.94 10.7129 112.223 12.0488C111.505 13.36 111.147 14.8939 111.147 16.6504C111.147 18.4316 111.592 19.9531 112.483 21.2148C113.373 22.4518 114.524 23.0703 115.934 23.0703C117.443 23.0703 118.593 22.4395 119.385 21.1777C120.201 19.8913 120.61 18.4564 120.61 16.873ZM123.653 25H120.721V23.1074C119.385 24.666 117.752 25.4453 115.822 25.4453C113.819 25.4453 112.037 24.6413 110.479 23.0332C108.92 21.4004 108.141 19.4089 108.141 17.0586C108.141 15.5742 108.339 14.2012 108.735 12.9395C109.13 11.653 109.86 10.5273 110.924 9.5625C112.013 8.57292 113.361 8.07812 114.969 8.07812C117.567 8.07812 119.484 8.93164 120.721 10.6387V1.13867H123.653V25ZM153.212 7.70703C153.212 6.34635 152.755 5.39388 151.839 4.84961C150.924 4.30534 149.6 4.0332 147.869 4.0332H143.675V11.3066H147.869C151.431 11.3066 153.212 10.1068 153.212 7.70703ZM157.146 25H153.769C153.497 23.7878 153.274 22.6868 153.101 21.6973C152.928 20.6829 152.779 19.8789 152.656 19.2852C152.458 18.3945 152.285 17.6895 152.136 17.1699C152.013 16.6504 151.827 16.1803 151.58 15.7598C151.332 15.3392 151.097 15.0423 150.875 14.8691C150.677 14.6712 150.33 14.5104 149.835 14.3867C149.365 14.263 148.92 14.2012 148.5 14.2012C148.079 14.1764 147.436 14.1641 146.57 14.1641H143.675V25H140.41V1.13867H147.906C150.825 1.13867 152.99 1.64583 154.4 2.66016C155.835 3.64974 156.552 5.33203 156.552 7.70703C156.552 9.71094 155.068 11.418 152.099 12.8281C153.583 13.1497 154.598 14.0033 155.142 15.3887C155.315 15.8587 155.55 17.207 155.847 19.4336C156.169 21.6354 156.602 23.4909 157.146 25ZM170.887 15.0547C170.912 14.8815 170.924 14.6341 170.924 14.3125C170.924 13.1003 170.578 12.1107 169.885 11.3438C169.217 10.5521 168.141 10.1562 166.656 10.1562C164.232 10.1562 162.76 11.7891 162.24 15.0547H170.887ZM174.041 19.7305C173.769 21.3138 173.014 22.6621 171.777 23.7754C170.565 24.8887 168.833 25.4453 166.582 25.4453C165.271 25.4453 164.108 25.1732 163.094 24.6289C162.104 24.0846 161.325 23.3796 160.756 22.5137C160.187 21.623 159.766 20.6953 159.494 19.7305C159.222 18.7656 159.086 17.776 159.086 16.7617C159.086 15.6732 159.222 14.6465 159.494 13.6816C159.766 12.6921 160.187 11.7643 160.756 10.8984C161.325 10.0326 162.129 9.35221 163.168 8.85742C164.207 8.33789 165.419 8.07812 166.805 8.07812C168.042 8.07812 169.118 8.26367 170.033 8.63477C170.973 9.00586 171.691 9.46354 172.186 10.0078C172.705 10.5273 173.113 11.1582 173.41 11.9004C173.732 12.6178 173.93 13.2734 174.004 13.8672C174.103 14.4362 174.152 15.0299 174.152 15.6484C174.152 16.2174 174.115 16.737 174.041 17.207H162.24C162.24 19.0378 162.599 20.5098 163.317 21.623C164.034 22.7363 165.147 23.293 166.656 23.293C168.017 23.293 169.019 22.9342 169.662 22.2168C170.33 21.4993 170.738 20.6706 170.887 19.7305H174.041ZM201.995 25H198.989V14.3125C198.989 13.026 198.68 12.0117 198.061 11.2695C197.443 10.5273 196.515 10.1562 195.278 10.1562C194.14 10.1562 193.151 10.6139 192.309 11.5293C191.468 12.4199 191.048 13.3477 191.048 14.3125V25H188.042V14.3125C188.042 13.1992 187.695 12.2344 187.003 11.418C186.335 10.5768 185.469 10.1562 184.405 10.1562C183.193 10.1562 182.141 10.6139 181.251 11.5293C180.385 12.4447 179.952 13.3724 179.952 14.3125V25H176.946V8.48633H179.952V10.75C181.288 8.96875 182.921 8.07812 184.85 8.07812C186.359 8.07812 187.51 8.30078 188.302 8.74609C189.118 9.19141 189.848 9.93359 190.491 10.9727C191.901 9.04297 193.682 8.07812 195.835 8.07812C199.942 8.07812 201.995 10.1562 201.995 14.3125V25ZM208.425 25H205.419V8.48633H208.425V25ZM208.537 4.18164H205.308V1.13867H208.537V4.18164ZM226.99 25H223.205L218.381 18.5059L213.705 25H210.254L216.822 16.4277L210.736 8.48633H214.484L218.826 14.4238L223.094 8.48633H226.545L220.422 16.4277L226.99 25Z" fill="#CCCCCC"/>
</svg>
